<svg xmlns="http://www.w3.org/2000/svg" viewBox="0 0 413 140" fill="#000" fillrule="evenodd"><path d="M.131 65.317c0-21.143 11.387-39.358 31.878-39.358 17.892 0 28.298 14.312 28.298 33.017 0 1.139-.161 2.113-.161 3.252H6.149c-.161.976-.161 2.114-.161 2.929.161 18.865 8.295 36.269 27.484 36.269 9.271 0 18.216-3.254 23.095-7.319l2.766 4.555c-5.854 4.391-14.801 7.968-26.185 7.968C10.053 106.627.131 87.112.131 65.317zm54.159-8.132c0-12.359-6.829-25.859-22.605-25.859-14.312 0-22.932 11.71-25.047 25.859H54.29zm20.984-29.436h5.854v13.174c4.718-6.993 14.312-14.964 26.023-14.964 15.775 0 22.117 10.248 22.117 24.722v54.321h-5.853v-53.02c0-12.523-4.555-20.656-17.403-20.656-10.572 0-20.491 8.945-24.885 16.265v57.411h-5.854V27.749h.001zm175.366 0h5.856V40.76c3.902-6.18 12.035-14.801 24.558-14.801 12.036 0 18.215 6.506 19.843 15.614 4.553-7.319 13.172-15.614 25.37-15.614 15.288 0 20.818 10.248 20.818 24.722v54.321h-5.854v-53.02c0-12.523-3.741-20.656-16.103-20.656-10.733 0-19.354 9.108-23.256 15.777v57.898h-5.856v-53.02c0-12.523-3.901-20.656-16.1-20.656-11.061 0-19.843 10.084-23.42 16.265v57.411h-5.856V27.749zm111.766 59.687c0-20.817 23.095-26.184 40.66-26.184h3.74V51.33c0-13.824-5.854-20.005-18.053-20.005-7.48 0-14.149 2.277-20.33 8.133l-3.253-4.066c6.344-6.018 14.312-9.434 24.07-9.434 14.964 0 23.42 8.132 23.42 23.909v48.052c0 1.061-9.309 8.708-29.111 8.708-12.524 0-21.143-7.643-21.143-19.191zm44.4 8.426v-29.73h-3.74c-17.89 0-34.643 5.366-34.643 20.98 0 8.782 7.319 14.312 15.775 14.312 1.698 0 15.481-.174 22.608-5.562zm-197.482-4.031V81.295c14.121-1.469 25.168-13.439 25.168-27.944 0-15.492-12.604-28.097-28.096-28.097S178.3 37.859 178.3 53.351c0 14.505 11.047 26.476 25.168 27.944V91.83c-16.436 1.088-29.359 11.233-29.359 23.552 0 13.043 14.484 23.655 32.287 23.655 17.803 0 32.287-10.612 32.287-23.655 0-12.318-12.924-22.464-29.359-23.551zm-25.117-38.48c0-12.236 9.954-22.19 22.189-22.19s22.189 9.954 22.189 22.19-9.954 22.191-22.189 22.191-22.189-9.955-22.189-22.191zm22.189 79.78c-14.547 0-26.381-7.962-26.381-17.749 0-9.786 11.834-17.747 26.381-17.747s26.381 7.961 26.381 17.747c0 9.787-11.834 17.749-26.381 17.749zM151.468 27.749h5.855v77.253h-5.855V27.749zM161.88 6.698c.086-.596-.478-.654-.952-.688-1.005-.074-2.508.132-3.257-.522-1.166-1.02-1.185-2.036-1.45-3.494A8.473 8.473 0 0 1 156.075.9c-.045-.823-2.278-1.226-2.676-.541-.174.297-.337.737-.5 1.046-.382.722-1.417 2.327-1.686 2.584-.942.908-2.51 1.821-3.996 2.052-.68.105-.715 1.411-.704 1.982.021 1.22.644.945 1.745 1.125 1.192.195 2.151.691 2.898 1.398.864.816 1.447 1.914 1.787 3.155.24.883 1.28 1.198 2.306 1.348.542.077.783-.218.843-.752.154-1.396.631-2.835 1.656-3.869.762-.769 1.783-1.212 2.875-1.338.398-.047 1.016.073 1.217-.37.078-.304-.01-1.713.04-2.022.005-.031-.007.046 0 0z"></path></svg>
