<?xml version="1.0" encoding="UTF-8" standalone="no"?><!DOCTYPE svg PUBLIC "-//W3C//DTD SVG 1.1//EN" "http://www.w3.org/Graphics/SVG/1.1/DTD/svg11.dtd"><svg width="100%" height="100%" viewBox="0 0 377 91" version="1.1" xmlns="http://www.w3.org/2000/svg" xmlns:xlink="http://www.w3.org/1999/xlink" xml:space="preserve" style="fill-rule:evenodd;clip-rule:evenodd;stroke-linejoin:round;stroke-miterlimit:1.41421;"><path d="M21.8,64.2c-3.6,-0.3 -7.7,0.5 -11.1,1.5c-0.7,0.2 -2.1,0.8 -2.7,0.8l-0.6,0l0,-0.6c0,-0.6 0.6,-2 0.8,-2.7c5.4,-16.3 18.6,-29.4 33.5,-37.2c15,-7.9 33.1,-11.2 49.6,-6.4c4,1.2 5.7,2 4.4,6.5c-0.2,0.6 -0.4,1.2 -0.6,1.8c-0.1,0.4 -0.3,0.8 -0.4,1.1c-3.3,9.8 -11.8,16.8 -21,20.7c-10.9,4.6 -23.2,5.6 -34.9,4.3c-2.3,-0.3 -1.8,-4.2 0.4,-3.9c11,1.2 22.6,0.4 32.9,-4c8.1,-3.5 16,-9.6 18.8,-18.3c0.1,-0.4 0.3,-0.8 0.4,-1.2c0.2,-0.5 0.4,-1.1 0.5,-1.6c0.4,-1.2 -0.7,-1.3 -1.7,-1.6c-15.5,-4.5 -32.6,-1.3 -46.7,6.1c-12.8,6.7 -24.5,17.8 -30.1,31.5c4.1,-0.9 9.1,-1.3 13,0.2c3.9,-2 7.9,-2.5 12.2,-2.1c8.4,0.9 17,1 25.3,-0.7c12.1,-2.4 24.9,-7.9 31.8,-18.6c3.6,-5.6 6.6,-11.7 8.4,-18.2c1.3,-4.7 3.7,-9.2 7.4,-12.3c2.1,-1.7 4.5,-3 7.1,-3.6c2.3,-0.5 4.8,-0.5 7.1,0.1c2.3,0.6 4.9,2.1 6.4,3.9l0.1,0.1l0,0.1c1.4,3.9 -1.3,9.4 -3.8,12.3c-2.8,3.3 -11,7.8 -14.9,9.7c-0.9,0.4 -2,0.3 -2.6,-0.5c-0.9,-1.4 0.3,-2.8 1.5,-3.3c3.2,-1.6 10.7,-5.7 13,-8.4c2,-2.3 3,-4.9 2.8,-8c-1,-1 -2.2,-1.7 -3.5,-2c-1.7,-0.5 -3.5,-0.5 -5.2,-0.1c-2,0.5 -3.9,1.4 -5.5,2.8c-3.1,2.7 -5.1,6.5 -6.2,10.4c-2.7,10.1 -7.3,17.9 -13.7,26.2c-2,2.6 -4.2,5.1 -6.5,7.5c-9.3,9.8 -20.5,18.1 -32.2,24.8c9.8,0.4 19.8,-0.8 28.9,-4.7c6.5,-2.8 12.6,-7 16.9,-12.6c2.5,-3.2 4.7,-7.6 4.9,-11.7c0.1,-2.2 -0.5,-4.8 -2.8,-5.5c-1.3,-0.5 -2.9,-0.4 -4.2,-0.2c0.5,-0.9 2.4,-4 3.1,-4c0.8,0 1.6,0.2 2.4,0.5c4.1,1.4 5.6,5.4 5.5,9.4c-0.2,5 -2.7,10 -5.7,13.9c-5,6.6 -12.2,11.4 -19.8,14.4c-11.1,4.4 -23.4,5.2 -35.2,4c-1,-0.1 -2.8,-0.6 -3.1,-1.8c-0.2,-1.1 1.1,-1.9 2,-2.3c12.3,-6.3 24.2,-14.6 34,-24.3c-5.5,2.8 -11.4,4.8 -17.5,6c-8.8,1.6 -17.7,1.6 -26.5,0.6c-2.6,-0.3 -5.1,-0.1 -7.5,0.7c-7.4,2.5 -14.2,11.2 -19.1,17.3c5.5,-0.9 12.2,-3.3 15.3,-8c0.8,-1.2 1.5,-2.7 1.3,-4.2c0,-0.5 -0.1,-0.8 -0.3,-1.3c-0.2,-0.3 2.4,-1.6 3.4,-2c0.6,1 0.7,1.8 0.8,2.9c0.2,2.4 -0.7,4.8 -2,6.8c-4.6,6.8 -15.3,9.4 -23,10.2c-0.8,0.1 -2,0.1 -2.4,-0.7c-0.5,-1 0.8,-2.5 1.4,-3.3c2.8,-3.5 5.6,-7 8.6,-10.4c2.3,-2.4 4.6,-4.8 7.1,-6.8m98.1,-51.6c1.4,0.2 2.4,1.4 2.2,2.8c-0.2,1.4 -1.4,2.4 -2.8,2.2c-1.4,-0.2 -2.4,-1.4 -2.2,-2.8c0.2,-1.3 1.4,-2.4 2.8,-2.2Z" style="fill:url(#_Linear1);"/><path d="M157.1,29l0,4.8l8.4,0l0,3.7l-8.4,0l0,8.5l-3.9,0l0,-20.7l13.4,0l0,3.7l-9.5,0Zm33.7,-3.7l3.9,0l0,12.1c0,1.6 -0.3,3.3 -1,4.8c-0.7,1.3 -1.7,2.4 -3,3.1c-1.4,0.8 -3,1.1 -4.6,1.1c-1.6,0 -3.2,-0.3 -4.6,-1.1c-1.3,-0.7 -2.3,-1.8 -2.9,-3.1c-0.7,-1.5 -1,-3.1 -1,-4.8l0,-12.1l3.9,0l0,12.3c0,1.3 0.2,2.9 1.1,3.9c0.9,1 2.3,1.2 3.6,1.2c1.3,0 2.7,-0.2 3.6,-1.2c0.9,-1 1.1,-2.6 1.1,-3.9l0,-12.3l-0.1,0Zm19.4,17l9.7,0l0,3.7l-13.5,0l0,-20.7l3.8,0l0,17Zm24,0l9.7,0l0,3.7l-13.5,0l0,-20.7l3.8,0l0,17Zm23.3,-11.1c0,0.3 0.1,0.5 0.3,0.7c0.3,0.3 0.7,0.5 1,0.7c0.5,0.2 1.1,0.5 1.6,0.6c0.6,0.2 1.3,0.5 1.9,0.7c0.7,0.2 1.3,0.5 2,0.9c0.6,0.3 1.2,0.7 1.8,1.2c0.6,0.5 1,1.1 1.3,1.8c0.4,0.8 0.5,1.6 0.5,2.5c0,1.2 -0.3,2.2 -1,3.2c-0.7,0.9 -1.6,1.6 -2.7,2c-1.3,0.5 -2.7,0.7 -4,0.7c-1.1,0 -2.2,-0.1 -3.2,-0.4c-1,-0.3 -1.9,-0.6 -2.8,-1.1l-0.3,-0.2l0,-4.2l0.9,0.5c0.5,0.3 1,0.6 1.6,0.8c0.6,0.2 1.2,0.4 1.8,0.6c0.6,0.1 1.3,0.2 1.9,0.2c0.5,0 1,0 1.5,-0.1c0.5,-0.1 0.9,-0.2 1.3,-0.4c0.3,-0.1 0.6,-0.4 0.9,-0.7c0.2,-0.3 0.3,-0.7 0.3,-1.1c0,-0.4 -0.1,-0.9 -0.3,-1.3c-0.3,-0.4 -0.6,-0.7 -1,-0.9c-0.5,-0.3 -1,-0.5 -1.6,-0.7c-0.6,-0.2 -1.3,-0.4 -1.9,-0.6c-0.7,-0.2 -1.3,-0.4 -2,-0.7c-0.6,-0.3 -1.2,-0.6 -1.8,-1c-0.6,-0.4 -1,-0.9 -1.3,-1.6c-0.4,-0.7 -0.5,-1.5 -0.5,-2.3c0,-0.8 0.1,-1.5 0.4,-2.2c0.3,-0.8 0.7,-1.4 1.3,-2c0.6,-0.6 1.5,-1.1 2.3,-1.4c1.1,-0.4 2.3,-0.5 3.4,-0.5c0.7,0 1.4,0.1 2.1,0.2c0.6,0.1 1.2,0.3 1.8,0.5c0.5,0.2 1,0.4 1.5,0.6l0.3,0.2l0,4l-0.9,-0.5c-0.4,-0.2 -0.7,-0.4 -1.1,-0.6c-0.5,-0.2 -1,-0.3 -1.5,-0.5c-0.6,-0.1 -1.2,-0.2 -1.8,-0.2c-0.5,0 -1,0 -1.5,0.1c-0.4,0.1 -0.9,0.2 -1.3,0.4c-0.3,0.2 -0.6,0.4 -0.8,0.7c-0.3,0.6 -0.4,1 -0.4,1.4Zm25.4,7.5l0,7.3l-3.9,0l0,-20.7l7.6,0c1.3,0 2.7,0.2 3.9,0.8c1.1,0.5 2,1.3 2.6,2.3c0.6,1.1 0.9,2.4 0.9,3.6c0,1.3 -0.2,2.5 -0.9,3.6c-0.6,1 -1.5,1.8 -2.6,2.3c-1.2,0.6 -2.6,0.8 -3.9,0.8l-3.7,0l0,0Zm0,-9.8l0,6.3l3.5,0c0.7,0 1.5,-0.1 2.1,-0.3c0.4,-0.1 0.8,-0.4 1.1,-0.7c0.2,-0.3 0.4,-0.6 0.5,-1c0.1,-0.4 0.1,-0.8 0.1,-1.2c0,-0.4 0,-0.8 -0.1,-1.2c-0.1,-0.4 -0.2,-0.7 -0.5,-1c-0.3,-0.3 -0.7,-0.5 -1.1,-0.7c-0.6,-0.2 -1.4,-0.3 -2.1,-0.3l-3.5,0l0,0.1Zm25.7,0.1l0,4.8l8.8,0l0,3.7l-8.8,0l0,4.8l10,0l0,3.7l-13.9,0l0,-20.7l13.9,0l0,3.7l-10,0Zm24.9,0l0,4.8l8.8,0l0,3.7l-8.8,0l0,4.8l10,0l0,3.7l-13.9,0l0,-20.7l13.9,0l0,3.7l-10,0Zm27.9,-3.7c2.7,0 5.4,0.6 7.2,2.7c1.9,2.1 2.5,5 2.5,7.7c0,2.7 -0.6,5.6 -2.5,7.7c-1.9,2 -4.6,2.7 -7.2,2.7l-6.8,0l0,-20.8l6.8,0Zm-2.9,3.5l0,13.6l2.5,0c1.2,0 2.6,-0.2 3.7,-0.7c0.9,-0.5 1.6,-1.2 2,-2.2c0.5,-1.2 0.7,-2.6 0.7,-3.9c0,-1.3 -0.1,-2.8 -0.7,-4c-0.4,-1 -1.1,-1.7 -2,-2.2c-1.1,-0.6 -2.4,-0.7 -3.7,-0.7l-2.5,0l0,0.1Z"/><path d="M362.6,58.6c0,-0.8 0.3,-1.5 1,-1.9c0.6,-0.4 1.5,-0.6 2.7,-0.7c0.5,0 1,0 1.4,0.1c0.4,0.1 0.8,0.2 1.2,0.3c0.4,0.1 0.7,0.3 1,0.5l0,-1.7c-0.3,-0.2 -0.7,-0.3 -1.1,-0.4c-0.4,-0.1 -0.8,-0.2 -1.2,-0.3c-0.4,-0.1 -0.9,-0.1 -1.4,-0.1c-0.9,0 -1.7,0.1 -2.4,0.4c-0.7,0.2 -1.2,0.6 -1.6,1c-0.4,0.4 -0.7,0.8 -0.9,1.3c-0.2,0.5 -0.3,1 -0.3,1.5c0,0.6 0.1,1.1 0.4,1.6c0.2,0.4 0.5,0.8 0.9,1c0.4,0.3 0.8,0.5 1.3,0.7c0.5,0.2 1,0.4 1.5,0.5c0.5,0.1 1,0.3 1.5,0.5c0.5,0.2 0.9,0.4 1.3,0.6c0.4,0.2 0.7,0.5 0.9,0.9c0.2,0.4 0.4,0.8 0.4,1.4c0,0.4 -0.1,0.7 -0.2,1c-0.1,0.3 -0.4,0.5 -0.6,0.7c-0.3,0.2 -0.6,0.3 -0.9,0.4c-0.3,0.1 -0.7,0.2 -1,0.2c-0.4,0 -0.7,0.1 -1.1,0.1c-0.7,0 -1.3,-0.1 -1.8,-0.2c-0.5,-0.1 -1,-0.3 -1.4,-0.4c-0.4,-0.2 -0.8,-0.4 -1,-0.6l0,1.7c0.4,0.2 0.7,0.4 1.2,0.5c0.4,0.2 0.9,0.3 1.5,0.4c0.5,0.1 1.1,0.1 1.8,0.1c1.1,0 2.1,-0.2 2.9,-0.5c0.8,-0.3 1.4,-0.8 1.8,-1.4c0.4,-0.6 0.6,-1.3 0.6,-2.1c0,-0.7 -0.1,-1.3 -0.4,-1.8c-0.2,-0.5 -0.5,-0.9 -0.9,-1.3c-0.4,-0.3 -0.8,-0.6 -1.3,-0.8c-0.5,-0.2 -1,-0.4 -1.5,-0.6c-0.5,-0.2 -1,-0.3 -1.5,-0.5c-0.5,-0.1 -0.9,-0.3 -1.3,-0.5c-0.4,-0.2 -0.7,-0.4 -0.9,-0.7c-0.4,-0.2 -0.6,-0.5 -0.6,-0.9m-17.3,-2.5l7.8,0l0,-1.5l-9.4,0l0,14.9l9.4,0l0,-1.5l-7.8,0l0,-5.2l6.9,0l0,-1.6l-6.9,0l0,-5.1Zm-12.4,-1.5l0,14.9l1.6,0l0,-14.9l-1.6,0Zm-14.2,8.4l3.6,0l0,4.7c-1.1,0.4 -2.2,0.5 -3.4,0.5c-1.3,0 -2.3,-0.2 -3.1,-0.6c-0.8,-0.4 -1.4,-1.1 -1.8,-2c-0.4,-0.9 -0.6,-2.1 -0.6,-3.5c0,-1.4 0.2,-2.6 0.6,-3.5c0.4,-0.9 1,-1.6 1.8,-2c0.8,-0.4 1.8,-0.7 3.1,-0.6c0.8,0 1.6,0.1 2.3,0.2c0.8,0.2 1.5,0.4 2.2,0.7l0,-1.6c-0.7,-0.3 -1.5,-0.5 -2.3,-0.7c-0.8,-0.2 -1.6,-0.2 -2.4,-0.2c-2.3,0 -4,0.6 -5.2,1.9c-1.2,1.3 -1.7,3.2 -1.7,5.7c0,2.5 0.6,4.5 1.7,5.7c1.2,1.3 2.9,1.9 5.2,1.9c0.9,0 1.8,-0.1 2.7,-0.3c0.9,-0.2 1.7,-0.5 2.5,-0.9l0,-7.1l-5.2,0l0,1.7Zm-21.9,5.2c-1.2,0 -2.2,-0.2 -3,-0.6c-0.8,-0.4 -1.4,-1.1 -1.7,-2c-0.4,-0.9 -0.6,-2.1 -0.6,-3.5c0,-1.4 0.2,-2.6 0.6,-3.5c0.4,-0.9 1,-1.6 1.7,-2c0.7,-0.4 1.8,-0.7 3,-0.6c1.2,0 2.2,0.2 3,0.6c0.8,0.4 1.4,1.1 1.7,2c0.4,0.9 0.6,2.1 0.6,3.5c0,1.4 -0.2,2.6 -0.6,3.5c-0.4,0.9 -1,1.6 -1.7,2c-0.7,0.4 -1.7,0.6 -3,0.6Zm0,-13.8c-2.3,0 -4,0.6 -5.2,1.9c-1.2,1.3 -1.7,3.2 -1.7,5.7c0,2.5 0.6,4.5 1.7,5.7c1.2,1.3 2.9,1.9 5.2,1.9c2.3,0 4,-0.6 5.2,-1.9c1.2,-1.3 1.7,-3.2 1.7,-5.7c0,-2.5 -0.6,-4.5 -1.7,-5.7c-1.1,-1.2 -2.9,-1.9 -5.2,-1.9Zm-21.6,13.6l0,-13.4l-1.6,0l0,14.9l9.2,0l0,-1.5l-7.6,0Zm-17.1,0.2c-1.2,0 -2.2,-0.2 -3,-0.6c-0.8,-0.4 -1.4,-1.1 -1.7,-2c-0.4,-0.9 -0.6,-2.1 -0.6,-3.5c0,-1.4 0.2,-2.6 0.6,-3.5c0.4,-0.9 1,-1.6 1.7,-2c0.8,-0.4 1.8,-0.7 3,-0.6c1.2,0 2.2,0.2 3,0.6c0.8,0.4 1.4,1.1 1.7,2c0.4,0.9 0.6,2.1 0.6,3.5c0,1.4 -0.2,2.6 -0.6,3.5c-0.4,0.9 -1,1.6 -1.7,2c-0.7,0.4 -1.7,0.6 -3,0.6Zm0,-13.8c-2.3,0 -4,0.6 -5.2,1.9c-1.2,1.3 -1.7,3.2 -1.7,5.7c0,2.5 0.6,4.5 1.7,5.7c1.2,1.3 2.9,1.9 5.2,1.9c2.3,0 4,-0.6 5.2,-1.9c1.2,-1.3 1.7,-3.2 1.7,-5.7c0,-2.5 -0.6,-4.5 -1.7,-5.7c-1.1,-1.2 -2.9,-1.9 -5.2,-1.9Zm-17.1,0.2l0,12.6l-8.9,-12.6l-1.8,0l0,14.9l1.6,0l0,-12.5l8.9,12.6l1.8,0l0,-15l-1.6,0Zm-21.5,0l0,6.7l-7.9,0l0,-6.7l-1.6,0l0,14.9l1.6,0l0,-6.7l7.9,0l0,6.7l1.6,0l0,-14.9l-1.6,0Zm-27.8,7.5c0,-1.4 0.2,-2.6 0.6,-3.5c0.4,-0.9 1,-1.6 1.8,-2c0.8,-0.4 1.8,-0.7 3.1,-0.6c0.8,0 1.5,0.1 2.2,0.2c0.7,0.2 1.4,0.4 2.1,0.7l0,-1.5c-0.7,-0.3 -1.5,-0.5 -2.2,-0.7c-0.8,-0.1 -1.5,-0.2 -2.3,-0.2c-2.3,0 -4,0.6 -5.2,1.9c-1.2,1.3 -1.7,3.2 -1.7,5.7c0,2.5 0.6,4.5 1.7,5.7c1.2,1.3 2.9,1.9 5.2,1.9c0.8,0 1.6,-0.1 2.3,-0.2c0.8,-0.1 1.5,-0.4 2.2,-0.6l0,-1.5c-1.4,0.6 -2.8,0.9 -4.4,0.9c-1.3,0 -2.3,-0.2 -3.1,-0.6c-0.8,-0.4 -1.4,-1.1 -1.8,-2c-0.3,-1 -0.5,-2.2 -0.5,-3.6Zm-16.9,-6l7.8,0l0,-1.5l-9.4,0l0,14.9l9.4,0l0,-1.5l-7.8,0l0,-5.2l6.9,0l0,-1.6l-6.9,0l0,-5.1Zm-21.6,-1.5l0,1.6l5.3,0l0,13.4l1.6,0l0,-13.4l5.3,0l0,-1.6l-12.2,0Z" style="fill-rule:nonzero;"/><defs><linearGradient id="_Linear1" x1="0" y1="0" x2="1" y2="0" gradientUnits="userSpaceOnUse" gradientTransform="matrix(127.969,0,0,127.969,4.7574,45.3876)"><stop offset="0%" style="stop-color:#0cd0ff;stop-opacity:1"/><stop offset="100%" style="stop-color:#cb66ff;stop-opacity:1"/></linearGradient></defs></svg>