<svg version="1.1" id="Layer_1" xmlns="http://www.w3.org/2000/svg" xmlns:xlink="http://www.w3.org/1999/xlink" x="0px" y="0px"
	 viewBox="0 27.8 100 44.5" enable-background="new 0 27.8 100 44.5" xml:space="preserve">
<polygon class="tito-logo-svg" points="28.8,27.8 0,27.8 0,36 10,36 10,71.2 19,71.2 19,36 28.8,36 "/>
<rect class="tito-logo-svg" x="33.2" y="27.7" width="8.2" height="7.8"/>
<rect class="tito-logo-svg" x="33.2" y="39.8" width="8.2" height="31.5"/>
<path class="tito-logo-svg" d="M83.2,38.8c-9.2,0-16.8,7.5-16.8,16.8S74,72.2,83.2,72.2S100,64.8,100,55.5S92.5,38.8,83.2,38.8z M74.2,55.5
	c0-5.2,4.2-9.5,9.5-9.5s9.5,4.2,9.5,9.5c0,0.5,0,0.8,0,1.2c-1-6-6.5-6.8-8.2-6.8c-2,0-2.5,0.2-3.5,1v6.5c0,0,1-0.8,2.2-0.8
	s3.8,0.8,3.8,3.8c0,3-2,4.2-4.2,4.2C78.5,65,74.2,60.5,74.2,55.5z"/>
<path class="tito-logo-svg" d="M63.2,46.2v-7h-6V27.8h-7.8v11.5h-3.8v7h3.8v15c0,0,0,2.8,0,3s0,7.2,13.2,7v-7c0,0-5.5,0.5-5.5-3v-15H63.2z"/>
</svg>
