<?xml version="1.0" encoding="UTF-8" standalone="no"?><!DOCTYPE svg PUBLIC "-//W3C//DTD SVG 1.1//EN" "http://www.w3.org/Graphics/SVG/1.1/DTD/svg11.dtd"><svg width="100%" height="100%" viewBox="0 0 32 32" version="1.1" xmlns="http://www.w3.org/2000/svg" xmlns:xlink="http://www.w3.org/1999/xlink" xml:space="preserve" style="fill-rule:evenodd;clip-rule:evenodd;stroke-linejoin:round;stroke-miterlimit:1.41421;"><g><path d="M23.056,9.887c-0.992,-4.234 -3.751,-7.059 -6.945,-7.059c-3.409,0 -6.063,2.805 -6.975,7.008c-2.789,0.492 -5.01,1.342 -5.01,2.663l0,3c0,0.72 0.664,1.299 1.716,1.757l1.347,9.568c0.467,2.062 3.42,3.106 8.778,3.106c5.204,0 7.821,-0.902 8.749,-3.016c0.019,-0.042 0.03,-0.086 0.037,-0.132l1.34,-9.527c1.051,-0.458 1.715,-1.037 1.715,-1.757l0,-3c0,-1.278 -2.087,-2.112 -4.752,-2.611Zm-14.108,0.996c-0.058,0.414 -0.101,0.84 -0.126,1.275c-1.628,0.264 -2.717,0.618 -2.971,1.013c-0.479,-0.245 -0.725,-0.481 -0.725,-0.671c0,-0.441 1.323,-1.125 3.822,-1.617Zm14.824,15.691c-0.516,1.111 -1.911,2.357 -7.806,2.357c-6.331,0 -7.606,-1.458 -7.796,-2.286l-1.265,-9.005c2.497,0.763 6.196,1.076 9.062,1.076c2.866,0 6.565,-0.314 9.062,-1.076l-1.257,8.934Zm-7.805,-10.857c3.678,0 8.729,-0.515 10.841,-1.837l0,1.62c0,0.752 -3.826,2.217 -10.841,2.217c-7.015,0 -10.841,-1.465 -10.841,-2.217l0,-1.62c0.844,0.528 2.153,0.928 3.664,1.216l0,0.649c0,0.276 0.224,0.5 0.5,0.5c0.241,0 0.433,-0.174 0.48,-0.401c-0.002,-0.018 -0.01,-0.033 -0.01,-0.051l0,-2.598c0,-0.842 0.08,-1.666 0.231,-2.484c0.001,-0.003 0.001,-0.007 0.001,-0.01c0.064,-0.346 0.221,-1.033 0.211,-1.032c0.143,-0.573 0.333,-1.101 0.544,-1.606c0.012,-0.03 0.019,-0.059 0.031,-0.089c0.007,-0.017 0.02,-0.028 0.028,-0.043c1.094,-2.518 2.99,-4.103 5.306,-4.103c2.576,0 4.922,2.383 5.873,5.879c-1.991,-0.294 -4.177,-0.424 -6.018,-0.424c-1.435,0 -3.076,0.084 -4.675,0.257c-0.101,0.34 -0.18,0.68 -0.251,1.022c1.408,-0.169 3.044,-0.279 4.926,-0.279c7.015,0 10.841,1.464 10.841,2.217c0,0.19 -0.247,0.426 -0.726,0.672c-0.54,-0.841 -4.862,-1.496 -10.115,-1.496c-1.884,0 -3.63,0.089 -5.141,0.236c-0.042,0.424 -0.066,0.852 -0.066,1.284l0,2.197c1.763,0.218 3.611,0.324 5.207,0.324Z" style="fill:#fff;fill-rule:nonzero;"/><path d="M19.119,26.608c0.126,0.058 0.271,0.046 0.407,-0.033c0.832,-0.482 3.848,-2.376 3.997,-4.598c0.133,-1.984 -2.068,-2.939 -3.686,-0.904c-0.08,0.1 -0.223,0.112 -0.289,0.024c-1.331,-1.777 -3.721,-0.423 -3.854,1.561c-0.145,2.162 2.652,3.596 3.425,3.95Z" style="fill:#fff;fill-rule:nonzero;"/></g></svg>