<?xml version="1.0" encoding="UTF-8" standalone="no"?><!DOCTYPE svg PUBLIC "-//W3C//DTD SVG 1.1//EN" "http://www.w3.org/Graphics/SVG/1.1/DTD/svg11.dtd"><svg width="100%" height="100%" viewBox="0 0 400 400" version="1.1" xmlns="http://www.w3.org/2000/svg" xmlns:xlink="http://www.w3.org/1999/xlink" xml:space="preserve" style="fill-rule:evenodd;clip-rule:evenodd;stroke-linejoin:round;stroke-miterlimit:1.41421;"><circle cx="200" cy="200" r="80" style="fill:#fff9cc;"/><path d="M261.604,203.154c0,16.05 -6.922,28.752 -17.373,28.752l-44.019,0l0,4.235l29.638,0l0,13.47c0,6.413 -2.023,14.05 -27.428,14.05l-5.807,0c-25.405,0 -28.158,-7.635 -28.156,-14.05l0,-30.195c0,-8.99 7.556,-17.146 16.542,-17.146l33.68,0c8.988,0 15.403,-6.387 15.404,-15.375l0,-18.497l10.147,0c10.45,0 17.373,15.225 17.373,31.272l0,3.484l-0.001,0l0,0Zm-97.379,10.259l0,18.495l-8.03,0c-10.453,0 -19.49,-15.225 -19.49,-31.272l0,-3.487c0,-16.045 9.037,-28.75 19.49,-28.75l41.9,0l0,-4.234l-29.638,0l0,-13.469c0,-6.412 4.14,-14.05 29.545,-14.05l5.807,0c25.406,0 26.042,7.638 26.042,14.05l0,30.196c0,8.988 -5.44,17.144 -14.425,17.144l-33.68,0c-8.987,0 -17.521,6.388 -17.521,15.378m148.983,-0.91l14.131,-12.5l-14.13,-12.672l-33.506,3.685c-0.238,-2.083 -0.553,-4.16 -0.953,-6.225l28.698,-4.116l-8.998,-7.337l-21.36,4.568c-1.7,-5.895 -4.075,-11.632 -7.147,-17.087l18.631,-11.331l1.256,-11.465l-23.622,16.8c-1.188,-1.73 -2.447,-3.422 -3.788,-5.073l26.363,-20.92l1.162,-18.827l-18.954,1.032l-21.09,26.288c-1.653,-1.313 -3.342,-2.553 -5.071,-3.72l17.378,-23.204l-11.547,1.17l-11.871,18.335c-5.477,-3.029 -11.231,-5.367 -17.137,-7.017l5.153,-21.188l-7.221,-9l-4.822,28.585c-2.075,-0.387 -4.163,-0.684 -6.255,-0.91l3.85,-33.445l-12.494,-14.116l-12.665,14.125l3.67,33.502c-2.083,0.238 -4.155,0.55 -6.218,0.95l-4.12,-28.69l-7.335,8.998l4.563,21.352c-5.893,1.697 -11.631,4.079 -17.088,7.148l-11.333,-18.629l-11.463,-1.25l16.795,23.616c-1.73,1.188 -3.422,2.445 -5.07,3.784l-20.912,-26.357l-18.838,-1.15l1.038,18.95l26.293,21.075c-1.318,1.655 -2.562,3.347 -3.731,5.077l-23.191,-17.38l1.162,11.553l18.329,11.866c-3.027,5.475 -5.36,11.231 -7.012,17.137l-21.19,-5.146l-8.997,7.221l28.588,4.813c-0.388,2.079 -0.693,4.175 -0.915,6.275l-33.438,-3.859l-14.125,12.49l14.134,12.675l33.496,-3.681c0.24,2.087 0.555,4.165 0.957,6.225l-28.695,4.116l8.995,7.335l21.362,-4.558c1.695,5.893 4.073,11.625 7.143,17.079l-18.63,11.331l-1.25,11.466l23.616,-16.801c1.187,1.729 2.45,3.42 3.785,5.078l-26.358,20.91l-1.155,18.832l18.95,-1.032l21.093,-26.285c1.647,1.313 3.341,2.55 5.062,3.725l-17.375,23.195l11.548,-1.17l11.875,-18.329c5.475,3.034 11.23,5.369 17.14,7.018l-5.163,21.183l7.222,9l4.83,-28.583c2.075,0.381 4.162,0.687 6.256,0.909l-3.854,33.441l12.496,14.129l12.678,-14.134l-3.678,-33.51c2.079,-0.238 4.15,-0.554 6.213,-0.946l4.116,28.693l7.33,-8.992l-4.552,-21.363c5.887,-1.702 11.625,-4.081 17.081,-7.152l11.331,18.637l11.459,1.253l-16.796,-23.628c1.732,-1.185 3.428,-2.446 5.077,-3.785l20.906,26.375l18.835,1.138l-1.035,-18.941l-26.287,-21.095c1.32,-1.65 2.557,-3.34 3.721,-5.072l23.2,17.385l-1.165,-11.547l-18.33,-11.871c3.025,-5.483 5.363,-11.238 7.01,-17.145l21.193,5.162l8.997,-7.222l-28.585,-4.825c0.383,-2.079 0.688,-4.163 0.908,-6.26l33.44,3.855l0,0.001Zm-96.318,43.495c3.285,0 5.95,-2.665 5.95,-5.954c0,-3.287 -2.666,-5.952 -5.95,-5.95c-3.287,-0.002 -5.952,2.663 -5.952,5.95c0,3.29 2.665,5.953 5.952,5.953m-33.355,-111.688c-3.285,0 -5.95,2.665 -5.95,5.953c0,3.287 2.665,5.95 5.95,5.95c3.288,0 5.953,-2.663 5.953,-5.95c0,-3.288 -2.665,-5.954 -5.953,-5.954m-114.406,186.714l4.462,-13.157l-8.31,-11.135l13.893,0.175l8.02,-11.34l4.125,13.265l13.265,4.125l-11.343,8.022l0.179,13.892l-11.135,-8.309l-13.156,4.463l0,-0.001l0,0Zm130.105,-316.153l6.15,12.459l13.746,1.996l-9.95,9.7l2.35,13.691l-12.296,-6.466l-12.296,6.465l2.35,-13.692l-9.95,-9.698l13.75,-1.996l6.146,-12.459l0,0Zm131.637,316.153l-13.156,-4.46l-11.134,8.307l0.175,-13.891l-11.34,-8.022l13.265,-4.125l4.125,-13.264l8.022,11.342l13.891,-0.177l-8.308,11.133l4.459,13.157l0.001,0Z" style="fill:#ffe824;fill-rule:nonzero;"/></svg>