<?xml version="1.0" encoding="UTF-8" standalone="no"?><!DOCTYPE svg PUBLIC "-//W3C//DTD SVG 1.1//EN" "http://www.w3.org/Graphics/SVG/1.1/DTD/svg11.dtd"><svg width="100%" height="100%" viewBox="0 0 100 100" version="1.1" xmlns="http://www.w3.org/2000/svg" xmlns:xlink="http://www.w3.org/1999/xlink" xml:space="preserve" style="fill-rule:evenodd;clip-rule:evenodd;stroke-linejoin:round;stroke-miterlimit:1.41421;"><g><path d="M78.898,78.802l-3.877,-4.9l-2.55,-3.199l0.639,-0.425l-1.022,-5.075l0.752,-0.645l3.057,-2.569l-1.249,-4.968l-1.673,0.094l4.46,-3.229l-5.109,-7.205l2.516,-1.685l-0.78,-4.637l-4.522,-2.422l-4.872,-0.11l-4.872,-0.118l-2.363,-3.895l-1.91,-3.171l-17.652,3.589l-2.866,0.585l-1.227,0.249l0.271,4.663l-4.019,1.843l-0.475,0.215l-0.345,1.379l-1.244,4.861l-4.222,1.67l0.446,7.567l-1.023,1.973l-1.142,2.221l0.35,1.068l0.995,3.056l-2.894,3.686l0.209,0.565l0.339,0.915l1.243,3.307l-3.193,3.233l-4.443,4.492c0.701,0.792 1.425,1.544 2.176,2.285l3.488,-3.527l4.595,-4.658l4.629,-0.87l1.481,0.355l5.483,1.3l2.702,-1.956l6.495,-4.872l1.893,-0.757l0.978,-0.386l0.503,-0.203l-0.022,-0.136l-0.593,-4.596l3.792,-2.718l0.673,-0.483l-0.187,-0.521l-1.368,-3.847l0.345,-0.084l2.03,-5.487l0.372,-0.989l-6.24,-5.544l6.201,-1.803l5.024,-1.456l4.975,0.11l4.635,0.104l2.487,1.34l0.197,1.15l-12.819,8.53l11.943,-2.496l2.556,3.616l-10.599,7.689l9.738,-0.573l0.147,0.57l-3.736,3.146l0.412,2.052l0.561,2.764l-5.184,3.362l-8.23,5.33l-4.843,3.144l-2.459,-0.227l-2.617,-0.237l6.416,-7.715l-0.824,-0.656l-8.35,10.051l-11.96,11.908c1.062,0.447 2.137,0.854 3.233,1.221l11.396,-11.35l0.3,-0.3l5.68,0.51l0.107,-0.073l3.047,2.888l9.016,8.569l0.005,0c1.125,-0.351 2.233,-0.752 3.33,-1.188l-9.627,-9.146l-3.04,-2.888l3.526,-2.284l7.851,-5.087l3.46,-2.232l2.538,3.199l4.265,5.372l5.241,4.194c0.778,-0.718 1.548,-1.453 2.283,-2.21l-5.24,-4.182Zm-40.442,-7.45l-2.662,1.934l-6.189,-1.47l-1.938,0.361l0.022,0.017l-0.068,-0.011l-2.493,0.47l-0.413,-1.108l-0.661,-1.746l0.48,-0.605l1.25,-1.571l12.622,2.753l0.05,0.976Zm7.026,-4.816l-3.024,1.215l-0.503,0.192l-7.931,-1.729l-2.391,-0.515l0,-0.006l-5.257,-1.142l-0.351,-1.079l-0.575,-1.752l0.283,-0.536l0.904,-1.752l4.075,1.057l10.281,2.679l4.318,1.125l0.04,0.43l0.028,0l0.103,1.813Zm0.938,-5.192l-5.861,-1.525l-1.011,-0.266l-7.359,-1.914l-4.861,-1.263l-0.271,-4.617l3.12,-1.234l-0.09,-0.207l5.172,2.566l5.76,2.854l0.006,0.003l3.939,1.949l3.272,-0.771l0.633,1.761l0.254,0.723l-2.703,1.941Zm3.827,-10.916l0.136,0.11l-1.085,2.927l-3.945,0.919l-2.668,-1.329l-0.006,0.007l-8.806,-4.369l-2.487,-1.235l0.43,-1.707l0.333,-1.283l0.125,-0.478l4.188,-1.922c0.916,0.766 2.516,1.611 5.138,1.543c0.125,0 0.26,-0.002 0.401,-0.011c0.096,-0.008 0.187,-0.014 0.283,-0.022c0.52,-0.042 1.006,-0.127 1.464,-0.243l0.525,1.764l5.974,5.329Zm2.136,-10.906l-4.081,1.184c0.565,-0.568 1,-1.117 1.289,-1.521c0.271,-0.387 0.418,-0.647 0.446,-0.687l-0.932,-0.503c0,0 -0.39,0.696 -1.142,1.527c-0.605,0.658 -1.436,1.41 -2.493,2.009c-0.604,0.333 -1.277,0.616 -2.023,0.8c-0.396,0.099 -0.814,0.167 -1.243,0.206c-0.232,0.017 -0.458,0.028 -0.667,0.04c-2.176,0.042 -3.516,-0.608 -4.279,-1.209l0.074,-0.009l-0.226,-3.775l3.205,-0.653l5.291,-1.077l5.901,-1.198l2.441,-0.495l0.339,0.565l2.188,3.606l-4.088,1.19Z" style="fill:#fff;fill-rule:nonzero;"/><path d="M45.38,64.722l0.023,0.361l-0.051,-0.361l0.028,0Z" style="fill:#fff;fill-rule:nonzero;"/><path d="M27.688,72.193l-0.067,-0.01l0.045,-0.006l0.022,0.016Z" style="fill:#fff;fill-rule:nonzero;"/><path d="M97.02,48.334c0.695,11.863 -3.193,22.95 -10.174,31.581l-4.985,-3.979l-4.567,-5.76l-0.688,-3.437l3.898,-3.307l-1.424,-5.697l4.036,-2.931l-5.024,-7.078l1.254,-0.831l-1.554,-9.151l-7.156,-3.837l-8.468,-0.195l-4.606,-7.625l-28.109,5.717l0.317,5.412l-3.736,1.716l-1.554,6.104l-5.02,1.99l0.554,9.388l-2.431,4.696l1.198,3.675l-2.973,3.77l1.696,4.511l-5.477,5.545c-5.218,-6.971 -8.497,-15.45 -9.045,-24.734c-1.509,-25.561 18.319,-47.517 44.286,-49.049c25.972,-1.526 48.243,17.946 49.752,43.506Z" style="fill:#fff;fill-rule:nonzero;"/></g></svg>