<?xml version="1.0" encoding="UTF-8" standalone="no"?><!DOCTYPE svg PUBLIC "-//W3C//DTD SVG 1.1//EN" "http://www.w3.org/Graphics/SVG/1.1/DTD/svg11.dtd"><svg width="100%" height="100%" viewBox="0 0 576 313" version="1.1" xmlns="http://www.w3.org/2000/svg" xmlns:xlink="http://www.w3.org/1999/xlink" xml:space="preserve" style="fill-rule:evenodd;clip-rule:evenodd;stroke-linejoin:round;stroke-miterlimit:1.41421;"><path d="M6,92l0,87l563.8,0c0.4,0 0.7,-39 0.7,-86.8l0,-86.7l-282.2,-0.3l-282.3,-0.2l0,87Zm233.5,-72.5c9,1.4 19,4.6 20.9,6.5c0.6,0.6 0.6,3.1 -0.2,7.4c-0.7,3.5 -1.5,10.5 -1.9,15.5l-0.6,9.1l-4.3,0l-4.4,0l0,-7c0,-10.8 -1.4,-13.1 -10.6,-17.6c-7.7,-3.8 -8,-3.9 -19.3,-3.9c-10.2,0 -12.1,0.3 -16.1,2.4c-10,5.2 -14,11.4 -14,21.7c0,7.9 2.5,13.1 8,16.8c4.8,3.1 8,4 28.5,7.6c9.4,1.6 19.3,3.6 22.2,4.5c17.3,5.2 25.8,23.9 20.7,45.5c-3.6,15.4 -16.9,29 -33.9,34.8c-9,3 -23.1,4.6 -34.3,3.9c-12.3,-0.8 -20.7,-2.7 -31,-6.8c-6.3,-2.4 -8.1,-3.6 -7.7,-4.8c1.3,-4.4 2.5,-13.1 2.5,-19c0,-3.6 0.3,-8.3 0.6,-10.4c0.6,-3.5 0.9,-3.7 4.4,-3.7l3.8,0l0.7,8.4c0.8,9.7 2.2,12.3 9,17.1c7.9,5.7 16.3,8 28.5,8c8.5,0 11.4,-0.4 15.1,-2.2c6.2,-2.8 12.3,-8.5 14.8,-13.7c2.9,-5.8 2.9,-16.4 0.1,-22.2c-3.8,-7.8 -10.3,-10.6 -33.5,-14.5c-7.1,-1.2 -16.6,-3.2 -20.9,-4.6c-6.9,-2.2 -8.7,-3.3 -13.7,-8.2c-4.7,-4.8 -6.1,-6.9 -7.8,-12.5c-3.5,-11.3 -2.3,-24.3 3,-34.8c3.6,-7.1 12.2,-15.2 19.7,-18.6c12.5,-5.8 33.4,-7.7 51.7,-4.7Zm192.1,3l0,3.4l-6.5,0.3c-6.3,0.3 -6.6,0.4 -6.6,2.8c0,2.3 0.4,2.5 5.8,2.8c3.5,0.2 5.7,-0.1 5.7,-0.8c0,-0.5 0.3,-1 0.8,-1c0.4,0 0.7,2 0.7,4.5c0,2.5 -0.3,4.5 -0.7,4.5c-0.5,0 -0.8,-0.7 -0.8,-1.5c0,-1.2 -1.3,-1.5 -6,-1.5c-4.7,0 -6,0.3 -6,1.5c0,0.8 -0.4,1.5 -0.9,1.5c-1.3,0 -2,-6.4 -0.7,-7.2c0.8,-0.5 0.7,-1.1 -0.2,-2c-1.5,-1.5 -1.6,-5 0,-6.6c0.7,-0.7 3.9,-1.2 7.5,-1.2c4.9,0 6.3,-0.3 6.3,-1.5c0,-0.8 0.4,-1.5 0.8,-1.5c0.4,0 0.8,1.6 0.8,3.5Zm-352.6,1.7l0,3.7l-6.1,0.7c-4.1,0.5 -7,1.4 -8.7,2.9l-2.6,2.2l-0.9,31.4c-1,36.2 -0.5,56.2 1.8,63.5c4.5,15.1 22.4,23.3 44.6,20.5c10.6,-1.4 16.8,-4 22.2,-9.4c5.6,-5.6 7.5,-11.1 8.8,-24.5c1.2,-13.2 0.8,-79.7 -0.5,-82.4c-0.9,-2 -6.4,-3.8 -11.3,-3.8c-5.2,0 -6.3,-0.9 -6.3,-4.9l0,-3.6l49,0l0,3.7c0,3.6 -0.1,3.7 -4.7,4.3c-7.4,1 -9.1,2 -10.3,6.2c-0.6,2.2 -1.5,22 -2.1,46.3c-1,45.9 -1.5,50.4 -6.8,60.9c-8.4,16.6 -30.3,25.9 -58.1,24.8c-15.1,-0.7 -23.8,-2.5 -33.3,-7.1c-7.4,-3.5 -15.6,-10.6 -18.3,-15.7c-4.1,-7.9 -4.4,-12.8 -4.4,-56.9c0,-43.6 -0.6,-53 -3.2,-55.6c-0.8,-0.8 -4.3,-1.8 -7.9,-2.2l-6.4,-0.7l-0.3,-4l-0.3,-4l66.1,0l0,3.7Zm325.6,2.3c-0.3,2.7 -0.8,8.8 -1.2,13.5c-0.9,15.1 -0.9,15 -5.3,15l-3.9,0l-0.7,-9c-0.4,-5.6 -1.2,-9.4 -2.1,-10.1c-1.5,-1.2 -17.6,-2.8 -30,-2.9c-6.6,0 -8.3,0.3 -8.8,1.6c-1.1,2.9 -0.7,113.9 0.5,117.2c1.1,3.3 1.9,3.6 12.2,4.8l5.7,0.6l0,3.9l0,3.9l-34.5,0l-34.5,0l0,-7.7l6.5,-0.6c7.7,-0.7 10.2,-1.9 11.7,-5.5c0.7,-1.8 1.2,-22 1.6,-59.9l0.5,-57.2l-2.8,-0.7c-3.2,-0.8 -31.1,0.4 -35.2,1.5c-3,0.8 -3.6,2.5 -4.8,14.3l-0.6,5.8l-4.2,0l-4.2,0l-0.3,-15.3c-0.2,-8.3 -0.5,-15.9 -0.7,-16.7c-0.4,-1.3 7.6,-1.5 67.6,-1.5l68.1,0l-0.6,5Zm130.6,-4.4c16.2,3.5 24.8,14 24.8,30.3c-0.1,12.2 -3.5,20.8 -11.8,29.7c-10.6,11.5 -26.8,16.7 -44.4,14.3c-4,-0.6 -4.8,-1.1 -6.2,-4.2c-2.3,-4.8 -1.1,-5.8 6.9,-5.4c14.3,0.8 24,-8.7 25.3,-24.5c1,-12.6 -4.1,-23.8 -13.1,-28.6c-3.5,-1.8 -5.9,-2.2 -14.2,-2.2c-5.5,0 -10.7,0.3 -11.6,0.7c-1.4,0.6 -1.7,4.3 -2.3,30.5c-0.4,16.4 -0.3,43.3 0.2,59.7c1.1,35.2 0.2,33 13.2,34.1l8,0.7l0,3.9l0,3.9l-34.5,0l-34.5,0l0,-7.8l5.8,-0.6c3.1,-0.4 6.5,-0.9 7.4,-1.2c3.9,-1.1 4.2,-5.8 4.3,-59.4c0,-51.9 -0.5,-61.8 -3.1,-64.4c-0.7,-0.8 -4.3,-1.8 -7.9,-2.1l-6.5,-0.7l0,-7.8l44.5,0c29.1,0 46.2,0.4 49.7,1.1Zm-115.9,21c-0.7,2.7 1.1,3.9 6,3.9c2.4,0 4,-0.5 4.3,-1.5c1.1,-2.8 1.9,-1.5 1.9,3c0,4.2 -0.9,5.9 -1.7,3.5c-0.5,-1.7 -9.7,-2 -11.3,-0.4c-1.9,2 -2.2,1.8 -2.7,-1.6c-0.3,-2 0,-3 0.9,-3c1.7,0 1.7,-1.5 -0.2,-3c-2.2,-1.8 -1.8,-3 0.9,-3c2,0 2.3,0.4 1.9,2.1Zm3.7,16.8c0,2.8 0.4,5.3 1,5.6c0.5,0.3 2.2,-0.6 3.6,-2c1.9,-1.9 2.4,-3.2 2,-5.1c-0.4,-1.3 -0.2,-2.4 0.3,-2.4c1.6,0 2.5,6.9 1.2,9.6c-1.4,3.1 -5.6,4.7 -9.9,3.9c-6.1,-1.1 -8.3,-11.3 -2.9,-13.5c4.2,-1.7 4.7,-1.2 4.7,3.9Zm8.6,15.3l-0.1,3.3l-6.5,0.5c-5.9,0.5 -6.5,0.7 -6.8,2.8c-0.3,1.9 -0.6,2.1 -1.8,1.1c-1.7,-1.4 -1.8,-5.1 -0.2,-6.7c0.7,-0.7 3.8,-1.2 7,-1.2c4.3,0 6,-0.4 6.4,-1.5c1,-2.6 2.2,-1.6 2,1.7Zm-0.1,12.3c0,2.5 -0.3,4.5 -0.7,4.5c-0.5,0 -0.8,-0.7 -0.8,-1.5c0,-1.2 -1.8,-1.5 -10.5,-1.5c-8.7,0 -10.5,0.3 -10.5,1.5c0,2.9 -1.8,1.5 -2.3,-1.8c-0.2,-1.7 -0.3,-3.3 -0.2,-3.5c0.1,-0.1 5.5,-0.3 11.9,-0.3c6.7,0 11.6,-0.4 11.6,-0.9c0,-0.6 0.3,-1 0.8,-1c0.4,0 0.7,2 0.7,4.5Zm-13.5,8c0,2.3 0.3,2.5 5.1,2.5c4.3,0 5.2,-0.3 5.6,-2c0.4,-1.6 0.8,-1.8 1.9,-0.9c1.7,1.4 1.8,4.1 0.2,5.7c-0.7,0.7 -3.8,1.2 -7,1.2c-4,0 -5.8,0.4 -5.8,1.2c0,1 -0.2,1 -0.8,0.1c-0.4,-0.6 -2,-1.3 -3.6,-1.5c-1.8,-0.2 -3.2,-1.1 -3.7,-2.4c-0.7,-1.9 -0.4,-2.1 2.9,-2c3.3,0.1 3.7,-0.2 3.5,-2.2c-0.2,-1.2 0.2,-2.2 0.7,-2.2c0.6,0 1,1.1 1,2.5Zm13.5,13.5c0,1.7 -0.5,3 -1.2,3c-1.7,0 -1.6,1.5 0.2,3c0.8,0.7 1.5,2.1 1.5,3.1c0,3.3 -2.8,4.9 -8.6,4.9c-3,0 -5.4,0.4 -5.4,1c0,2.4 -1.8,0.7 -2.2,-2l-0.5,-3l6.4,0c6.8,0 8.7,-1.5 6.6,-4.9c-1.4,-2.3 -10.3,-2.8 -10.3,-0.7c0,0.9 -0.4,1.6 -1,1.6c-0.5,0 -1,-0.9 -1,-1.9c0,-1.1 -0.3,-2.6 -0.6,-3.5c-0.5,-1.4 0.5,-1.6 7,-1.6c4.4,0 7.6,-0.4 7.6,-1c0,-0.6 0.3,-1 0.8,-1c0.4,0 0.7,1.3 0.7,3Zm-2,21.5c3.1,3 3.2,7.3 0.4,10.9c-1.6,2.1 -2.9,2.6 -6.4,2.6c-3.5,0 -4.8,-0.5 -6.4,-2.6c-2.7,-3.4 -2.7,-8.8 -0.1,-11.4c2.9,-2.9 9.4,-2.7 12.5,0.5Zm-2,18.1c3.4,1.4 5.4,8.4 3.9,14.1c-0.5,1.7 -1.4,2.3 -3.5,2.3c-1.6,0 -2.9,-0.5 -2.9,-1.1c0,-0.5 0.4,-0.8 0.9,-0.4c1.7,1 4.1,-2.6 4.1,-5.9c0,-3.9 -1.9,-5.9 -5.2,-5.4c-1.8,0.2 -2.5,1.3 -3.5,5.3c-1.9,7.4 -6.4,9.7 -11.4,5.6c-2,-1.6 -2.4,-2.8 -2.4,-7.4c0,-3.1 0.3,-5.8 0.6,-6.2c0.4,-0.3 2,-0.3 3.5,0.1l2.9,0.8l-2.5,0.6c-4.6,1.1 -3.7,10 1.1,10c2.1,0 3.3,-2 4.3,-6.9c0.3,-1.9 1.1,-4 1.7,-4.8c1.2,-1.4 5.6,-1.7 8.4,-0.7Zm-9.9,-88c-0.9,0.8 -1.6,1.7 -1.6,1.9c0,1 3.3,3.5 4.6,3.5c0.9,0 1.4,-1.1 1.4,-3.5c0,-3.9 -1.7,-4.6 -4.4,-1.9Zm0.6,73c-2.6,1.8 -2.7,2.7 -0.6,4.8c2.7,2.8 12,1.3 13.1,-2c1.3,-3.8 -8.1,-5.9 -12.5,-2.8Zm-411.2,58.3c0,0.5 0.7,1.1 1.5,1.5c1.2,0.4 1.5,2.5 1.5,10c0,8.5 0.2,9.7 2.2,11.5c4.9,4.6 15.5,3.5 18.3,-1.9c1,-1.9 1.5,-5.7 1.5,-11c0,-6.2 0.3,-8.2 1.5,-8.6c3,-1.2 1.4,-2.4 -3,-2.4c-4.4,0 -6,1.2 -3,2.4c2.4,0.9 2.1,16.7 -0.3,18.9c-2.1,1.9 -6.4,2.2 -9.3,0.7c-1.7,-0.9 -1.9,-2.2 -1.9,-10.1c0,-7 0.3,-9.1 1.5,-9.5c3.3,-1.3 1.2,-2.4 -4.5,-2.4c-3.3,0 -6,0.4 -6,0.9Zm51,0.1c0,0.6 0.7,1.3 1.5,1.6c1.2,0.5 1.5,2.7 1.5,11c0,8.6 -0.3,10.4 -1.5,10.4c-0.8,0 -1.5,0.4 -1.5,1c0,0.5 2,1 4.5,1c2.5,0 4.5,-0.5 4.5,-1c0,-0.6 -0.7,-1 -1.5,-1c-1.2,0 -1.5,-1.6 -1.5,-8.3l0.1,-8.2l2,2.5c6.9,8.3 15.2,17 16.5,17c1.1,0 1.4,-2.3 1.4,-12.1c0,-11.2 0.1,-12.1 2,-12.6c3.3,-0.9 1.1,-2.3 -3.6,-2.3c-4.7,0 -5.4,0.6 -2.9,2.4c1.3,0.9 1.5,2.7 1.3,8.3l-0.3,7.3l-7.5,-9c-7,-8.4 -7.7,-9 -11.2,-9c-2.1,0 -3.8,0.5 -3.8,1Zm53,-0.1c0,0.5 0.7,1.1 1.5,1.5c1.2,0.4 1.5,2.6 1.5,11.1c0,8.7 -0.3,10.5 -1.5,10.5c-0.8,0 -1.5,0.4 -1.5,1c0,0.6 2.7,1 6,1c3.3,0 6,-0.4 6,-1c0,-0.6 -0.7,-1 -1.5,-1c-1.2,0 -1.5,-1.8 -1.5,-10.5c0,-8.5 0.3,-10.7 1.5,-11.1c3.3,-1.3 1.2,-2.4 -4.5,-2.4c-3.3,0 -6,0.4 -6,0.9Zm35,0c0,0.5 0.5,1.1 1.2,1.3c0.6,0.2 3.4,5.8 6.3,12.3c5.2,12.2 7.6,14.9 9,10.3c1.9,-6 8.9,-21.4 10.1,-22.1c2.7,-1.5 1.4,-2.7 -3.1,-2.7c-4.8,0 -5.5,0.6 -2.9,2.4c1.4,1.1 1.2,2 -1.7,9l-3.2,7.7l-1.4,-3.3c-4.5,-10.5 -5.2,-12.9 -3.7,-13.5c3.2,-1.2 1,-2.3 -4.6,-2.3c-3.3,0 -6,0.4 -6,0.9Zm51.5,0c-0.3,0.5 0.4,1.2 1.5,1.6c1.8,0.6 2,1.5 2,9.5c0,4.9 -0.4,10 -1,11.4l-1,2.6l18.8,0l0.4,-3c0.5,-3.5 -0.9,-5.1 -1.9,-2.3c-0.9,2.5 -2.3,3.3 -5.9,3.3c-2.7,0 -3.2,-0.4 -3.8,-3.1c-1.2,-6.2 -0.9,-6.9 2.9,-6.9c2.4,0 3.5,0.5 3.5,1.5c0,0.8 0.6,1.5 1.3,1.5c0.8,0 1.2,-1.4 1.2,-4c0,-2.6 -0.4,-4 -1.2,-4c-0.7,0 -1.3,0.7 -1.3,1.5c0,1 -1.1,1.5 -3.5,1.5c-3.7,0 -4,-0.5 -2.9,-5.9c0.6,-2.8 1,-3.1 4.4,-3.1c3,0 3.9,0.4 4.3,2.1c0.8,2.9 2.7,1.4 2.7,-2.2l0,-2.9l-9.9,0c-5.5,0 -10.2,0.4 -10.6,0.9Zm44.5,0c0,0.5 0.7,1.1 1.5,1.5c1.2,0.4 1.5,2.6 1.5,11.1c0,8.7 -0.3,10.5 -1.5,10.5c-0.8,0 -1.5,0.4 -1.5,1c0,0.6 2.7,1 6,1c3.3,0 6,-0.4 6,-1c0,-0.6 -0.7,-1 -1.5,-1c-1.2,0 -1.5,-1.8 -1.5,-10.5c0,-10.3 0,-10.5 2.3,-10.5c2.9,0 4.7,1.8 4.7,4.5c0,2.6 -1.8,4.5 -4.2,4.5c-2.6,0 -2.3,1.1 2.2,7.9c3.9,5.9 4.2,6.1 8.3,6.1c3.5,-0.1 3.9,-0.3 2.6,-1.3c-1.5,-1.2 -7.9,-10.1 -7.9,-11.1c0,-0.3 1.1,-1.6 2.5,-3c3,-3 3.2,-5.9 0.5,-8.6c-1.7,-1.7 -3.3,-2 -11,-2c-4.9,0 -9,0.4 -9,0.9Zm52.6,1.3c-5.8,5.3 -3.2,11.9 5.3,13.5c5.1,0.9 7.2,4.1 4.5,6.8c-3,3 -10.4,1.2 -10.4,-2.5c0,-1.1 -0.4,-2 -1,-2c-0.5,0 -1,0.6 -1,1.2c0,0.7 -0.3,2.3 -0.6,3.5c-0.5,1.8 0,2.3 3.4,3.4c5.6,1.6 10.5,0.5 13.6,-3.2c5.4,-6.3 1.3,-12.9 -8,-12.9c-3,0 -4.8,-3.1 -3.1,-5.3c2.2,-2.8 8.6,-2.6 9.4,0.3c0.8,3 2.3,2.4 2.3,-0.9c0,-3.4 -1.4,-4.1 -7.5,-4.1c-3.1,0 -5.1,0.6 -6.9,2.2Zm40.4,-1.3c0,0.5 0.7,1.1 1.5,1.5c1.2,0.4 1.5,2.6 1.5,11.1c0,8.7 -0.3,10.5 -1.5,10.5c-0.8,0 -1.5,0.4 -1.5,1c0,0.6 2.7,1 6,1c3.3,0 6,-0.4 6,-1c0,-0.6 -0.7,-1 -1.5,-1c-1.2,0 -1.5,-1.8 -1.5,-10.5c0,-8.5 0.3,-10.7 1.5,-11.1c3.3,-1.3 1.2,-2.4 -4.5,-2.4c-3.3,0 -6,0.4 -6,0.9Zm35,2.6c0,3.8 1.9,4.8 2.7,1.5c0.4,-1.4 1.4,-2 3.4,-2l2.9,0l0,10.5c0,8.7 -0.3,10.5 -1.5,10.5c-0.8,0 -1.5,0.4 -1.5,1c0,0.6 2.9,1 6.6,1c4.1,0 6.3,-0.4 5.9,-1c-0.3,-0.6 -1.3,-1 -2.1,-1c-1.1,0 -1.4,-2 -1.4,-10.5l0,-10.5l3.5,0c2.8,0 3.5,0.4 3.5,2c0,3.1 1.7,2.3 2.2,-1c0.3,-1.7 0.2,-3.2 0,-3.5c-0.3,-0.3 -5.9,-0.5 -12.4,-0.5l-11.8,0l0,3.5Zm47.8,-2.8c-2.3,0.6 -2.3,1.5 0.2,3.1c3.8,2.3 9,11.7 9,16.2c0,2.8 -0.4,4 -1.4,4c-0.8,0 -1.8,0.4 -2.1,1c-0.4,0.6 1.8,1 5.9,1c3.7,0 6.6,-0.4 6.6,-1c0,-0.6 -0.7,-1 -1.5,-1c-1.1,0 -1.5,-1.2 -1.5,-5.3c0,-4.4 0.6,-6.1 4,-11.2c4.4,-6.6 4.7,-7.5 2.5,-7.5c-0.8,0 -2.9,2.5 -4.6,5.5c-1.7,3 -3.4,5.5 -3.7,5.5c-0.4,0 -2.2,-2.5 -4,-5.5c-3.3,-5.5 -4.5,-6.1 -9.4,-4.8Zm84.7,0.2c-4.5,2 -6.9,5.9 -7.3,12.1c-0.4,5.7 -0.3,6.1 3,9.4c10,10 27.1,2.5 25.5,-11.2c-0.3,-3.2 -1.3,-5.3 -3.6,-7.5c-2.6,-2.7 -3.8,-3.1 -9.3,-3.4c-3.5,-0.1 -7.2,0.1 -8.3,0.6Zm12.2,3.4c2,1.5 3.5,8.4 2.7,12.4c-1.1,6.1 -6.1,8.9 -11.9,6.7c-3.9,-1.5 -5.9,-11.3 -3.4,-16.8c1.9,-4.1 8.8,-5.4 12.6,-2.3Zm32.9,-3.4c-0.3,0.5 0.3,1.1 1.4,1.4c1.8,0.5 2,1.4 2,11.1c0,8.6 -0.3,10.6 -1.4,10.6c-0.8,0 -1.8,0.4 -2.1,1c-0.4,0.6 1.8,1 5.9,1c3.7,0 6.6,-0.4 6.6,-1c0,-0.6 -0.7,-1 -1.5,-1c-1.1,0 -1.5,-1.2 -1.5,-5c0,-4.9 0.1,-5 3,-5c2,0 3,0.5 3,1.5c0,0.8 0.5,1.5 1,1.5c0.6,0 1,-1.8 1,-4c0,-2.2 -0.4,-4 -1,-4c-0.5,0 -1,0.7 -1,1.5c0,1 -1,1.5 -3,1.5c-2.9,0 -3,-0.2 -3,-4.5l0,-4.5l4,0c3.3,0 4,0.3 4,2c0,1.1 0.5,2 1,2c0.6,0 1,-1.6 1,-3.5l0,-3.5l-9.4,0c-5.2,0 -9.7,0.4 -10,0.9Zm-540.6,34.1c0,0.7 92.2,1 279.5,1c180.6,0 279.5,-0.3 279.5,-1c0,-0.6 -98.9,-1 -279.5,-1c-187.4,0 -279.5,0.3 -279.5,1Zm6.3,9.7c-3,0.6 -6.3,4.9 -6.3,8.3c0,3.5 2.8,5.9 7.6,6.7c4.9,0.7 6.4,1.9 6.4,4.9c0,5.1 -10.1,5.6 -10.8,0.6c-0.6,-3.7 -3.2,-2.7 -3.2,1.2c0,3.8 1.4,4.6 8.7,4.6c8.6,0 14.2,-9.5 8.4,-14.2c-1.3,-1 -3.4,-1.8 -4.6,-1.8c-4,0 -7.5,-1.8 -7.5,-3.9c0,-2.7 2.4,-4.3 6.2,-3.9c2.5,0.2 3.4,0.8 3.6,2.5c0.2,1.3 0.7,2.3 1.2,2.3c1.2,0 2.2,-5.2 1.2,-6.2c-1.1,-1.1 -7.8,-1.8 -10.9,-1.1Zm25.2,0.8c-8.2,3 -11.3,10.2 -7.6,17.9c2.9,5.8 7.2,8 15.1,7.4c5.7,-0.4 9.5,-2.2 8.4,-3.9c-0.3,-0.5 -1.3,-0.5 -2.4,0.1c-1,0.5 -3.7,1 -6,1c-3.3,0 -4.8,-0.6 -7.1,-2.9c-2.4,-2.5 -2.9,-3.7 -2.9,-8.1c0,-4.1 0.5,-5.6 2.5,-7.5c4,-4.1 13.5,-3 13.5,1.5c0,1.1 0.5,2 1,2c0.6,0 1,-0.9 1,-1.9c0,-1.1 0.3,-2.6 0.6,-3.4c1.1,-2.9 -10,-4.5 -16.1,-2.2Zm97.5,-0.4c-11.6,3.5 -13.3,19.2 -2.5,24.3c5.9,2.9 17.5,1.6 17.5,-1.9c0,-1.2 -0.4,-1.4 -1.9,-0.5c-3.3,1.7 -9.6,1.2 -12.4,-1c-5.4,-4.3 -5.6,-13.8 -0.4,-17.5c4.3,-3 12.7,-1.3 12.7,2.5c0,3.4 1.8,2.2 2.2,-1.5c0.2,-2.2 -0.1,-3.6 -0.9,-3.9c-3,-1.2 -11.1,-1.4 -14.3,-0.5Zm60.3,4.6c-1.4,3.2 -3.4,8.2 -4.5,11.2c-1.1,2.9 -2.9,6.2 -3.9,7.2c-1.1,1.1 -1.9,2.1 -1.9,2.4c0,0.3 2,0.5 4.5,0.5c4.7,0 5.4,-0.5 3.1,-2.4c-1,-0.8 -1.2,-1.8 -0.5,-3.4c0.7,-1.8 1.6,-2.2 5.3,-2.2c3.5,0 4.8,0.5 5.6,1.9c1.4,2.7 1.3,4.1 -0.5,4.1c-0.8,0 -1.5,0.4 -1.5,1c0,0.6 2.7,1 6,1c6,0 7.2,-0.8 4.6,-2.9c-0.8,-0.7 -3.3,-5.8 -5.7,-11.4c-6.4,-15.2 -6.8,-15.5 -10.6,-7Zm3.5,10.1c-4.1,0.7 -4.7,0 -3.1,-4.1l1.6,-3.8l1.7,3.8c1.6,3.6 1.6,3.8 -0.2,4.1Zm147.2,-14.8c-2,0.5 -4.9,2.4 -6.7,4.4c-2.7,2.9 -3.3,4.4 -3.3,7.8c0,5.5 3,10.5 7.5,12.4c4.5,1.9 12.5,1.8 15.3,-0.2c2.8,-1.9 3,-3.9 0.3,-2.4c-2.6,1.3 -8.4,1.3 -11.5,-0.1c-6,-2.8 -7.2,-13.2 -2,-17.7c3.9,-3.4 10.4,-2.8 12.2,1.1c1.6,3.3 3.2,2.7 3.2,-1.3c0,-2.5 -0.5,-3.1 -3.7,-3.9c-4.3,-1.2 -6.3,-1.2 -11.3,-0.1Zm89.3,0.1c-5.2,1.5 -8.3,6.1 -8.3,12.2c0,2.9 0.6,6.3 1.3,7.7c3.3,6.6 16.9,8.1 22.7,2.5c4.1,-3.9 5.5,-9.4 3.8,-14.8c-2.1,-6.8 -10.7,-10.1 -19.5,-7.6Zm11.1,3.8c4,4.5 3.8,14.9 -0.5,18.3c-3.1,2.6 -6.6,2.2 -10,-1.1c-2.5,-2.5 -2.9,-3.7 -2.9,-8.4c0,-7.2 2.6,-10.7 7.9,-10.7c2.5,0 4.4,0.7 5.5,1.9Zm43.9,-3.9c-6.7,2.1 -10.5,10.3 -8.1,17.6c3.3,9.9 18.8,11.6 25.7,2.8c2.4,-3 2.9,-10.6 1,-14.7c-2.2,-4.9 -11.7,-7.8 -18.6,-5.7Zm11.2,4c2.4,2.6 3.1,12.5 1.3,15.9c-2.8,5.3 -11.5,4.8 -13.7,-0.7c-2.1,-5.5 -1.7,-12.6 0.9,-15.2c2.7,-2.7 9,-2.7 11.5,0Zm21.5,-3.9c-4.1,1.3 -6.7,3.4 -8.6,7.1c-3,5.9 -0.4,13.7 5.7,17c3.8,2 11.9,2.4 16.8,0.7c2.6,-0.9 3.1,-1.6 3.1,-4.3c0,-1.8 0.5,-3.7 1.2,-4.4c0.9,-0.9 -0.2,-1.2 -5,-1.2c-3.5,0 -6.2,0.4 -6.2,1c0,0.5 0.9,1 2,1c1.6,0 2,0.7 2,3c0,4 -3.9,5.1 -8.9,2.4c-4.7,-2.5 -6.8,-8.1 -5.1,-13.6c1.3,-4.6 4.3,-6.8 9.3,-6.8c4.8,0 7.7,1.5 7.7,4c0,1.1 0.5,2 1,2c0.6,0 1,-0.9 1,-1.9c0,-1.1 0.3,-2.6 0.6,-3.4c0.3,-0.8 -0.2,-1.7 -1.1,-2.1c-3.3,-1.2 -12.1,-1.5 -15.5,-0.5Zm24.5,-0.4c-4.5,0.9 -5.1,1.4 -3.2,2.5c1,0.5 3.6,3.7 5.8,7.1c4.6,7 5.4,13.5 1.9,14.4c-1.1,0.3 -1.7,0.9 -1.4,1.4c0.7,1.2 12.4,1.1 12.4,-0.1c0,-0.6 -0.7,-1 -1.5,-1c-1.2,0 -1.5,-1.3 -1.5,-5.6c0,-4.8 0.5,-6.3 4,-11.4c4.6,-6.7 4.6,-7 2.3,-7c-1.1,0 -2.9,2.1 -4.8,5.5c-1.6,3 -3.2,5.5 -3.5,5.5c-0.3,0 -1.6,-2 -2.9,-4.4c-2.8,-5.5 -5,-7.4 -7.6,-6.9Zm-492,1.3c0.3,0.5 1.3,1 2.1,1c1.1,0 1.4,2 1.4,10.6c0,9.7 -0.2,10.6 -2,11.1c-1.1,0.3 -1.7,0.9 -1.4,1.4c0.7,1.2 12.4,1.1 12.4,-0.1c0,-0.6 -0.7,-1 -1.5,-1c-1.2,0 -1.5,-1.9 -1.5,-11c0,-9.1 0.3,-11 1.5,-11c0.8,0 1.5,-0.5 1.5,-1c0,-0.6 -2.9,-1 -6.6,-1c-4.1,0 -6.3,0.4 -5.9,1Zm15,0c0.3,0.5 1.3,1 2.1,1c1.3,0 1.5,1.6 1.2,10.2c-0.2,5.7 -0.7,11.1 -1.2,12c-0.7,1.7 0,1.8 8.8,1.8l9.6,0l0,-3.5c0,-1.9 -0.4,-3.5 -1,-3.5c-0.5,0 -1,0.9 -1,2c0,1.7 -0.7,2 -4.4,2c-4.8,0 -5.2,-0.6 -5.2,-5.9c0.1,-2.7 0.5,-3.5 2.3,-3.7c1.4,-0.2 3.1,0.5 4.3,1.8l2,2.2l0,-4.7c0,-2.6 -0.4,-4.7 -1,-4.7c-0.5,0 -1,0.7 -1,1.5c0,1.1 -1.1,1.5 -3.5,1.5c-3.3,0 -3.5,-0.2 -3.1,-2.8c0.2,-1.5 0.5,-3.5 0.5,-4.5c0.1,-1.2 0.9,-1.7 3.4,-1.7c3.2,0 5.9,1.1 5.8,2.4c-0.1,0.3 0.2,0.7 0.7,0.8c0.4,0.2 0.8,-0.9 1,-2.5l0.3,-2.7l-10.6,0c-6.8,0 -10.4,0.4 -10,1Zm23,0c0.3,0.5 1.3,1 2.1,1c1.1,0 1.4,2 1.4,10.6c0,9.7 -0.2,10.6 -2,11.1c-1.1,0.3 -1.7,0.9 -1.4,1.4c0.7,1.2 9.4,1.1 9.4,-0.1c0,-0.6 -0.7,-1 -1.5,-1c-1.2,0 -1.5,-1.6 -1.5,-8c0,-4.4 0.1,-8 0.3,-8c0.2,0 3.8,4 8.1,9c4.7,5.5 8.5,9 9.7,9c1.8,0 1.9,-0.8 1.9,-12c0,-10 0.3,-12 1.5,-12c0.8,0 1.5,-0.5 1.5,-1c0,-0.6 -2,-1 -4.5,-1c-2.5,0 -4.5,0.4 -4.5,1c0,0.5 0.7,1 1.5,1c1.2,0 1.5,1.5 1.5,7.6c0,9 0.1,9 -9.2,-2.3c-5.8,-7.1 -6.1,-7.3 -10.4,-7.3c-2.8,0 -4.3,0.4 -3.9,1Zm59.5,0c0,0.5 0.7,1 1.5,1c1.2,0 1.5,1.8 1.5,10.4c0,5.9 -0.4,10.8 -1,11.1c-2.8,1.7 -0.1,2.5 8.5,2.5c8.7,0 9.5,-0.2 9.5,-1.9c0,-1.1 0.3,-2.6 0.6,-3.5c0.4,-0.9 0.1,-1.6 -0.6,-1.6c-0.6,0 -1.4,0.9 -1.7,2c-0.4,1.6 -1.4,2 -4.9,2l-4.4,0l0,-4.8c0,-4.8 0,-4.9 3.1,-4.4c1.7,0.2 3.3,1.1 3.6,1.8c0.9,2.5 2.3,0.3 2.3,-3.7c0,-3.9 -1.5,-5.3 -2.6,-2.4c-0.4,0.9 -1.9,1.5 -3.8,1.5c-3.1,0 -3.1,0 -2.8,-4.5c0.4,-4.2 0.6,-4.5 3.2,-4.5c3.9,0 6,0.9 6,2.6c0,0.8 0.5,1.4 1,1.4c0.6,0 1,-1.4 1,-3l0,-3l-10,0c-6,0 -10,0.4 -10,1Zm62,0c0,0.5 0.7,1 1.5,1c1.2,0 1.5,1.8 1.5,10.5c0,8.5 -0.3,10.7 -1.5,11.1c-3,1.2 -1.4,2.4 3,2.4c2.5,0 4.5,-0.5 4.5,-1c0,-0.6 -0.7,-1 -1.5,-1c-1.2,0 -1.5,-1.6 -1.5,-8.6l0,-8.7l2.8,3.5c7.6,9.5 13.7,15.8 15.3,15.8c1.7,0 1.9,-1 1.9,-12c0,-10 0.3,-12 1.5,-12c0.8,0 1.5,-0.5 1.5,-1c0,-0.6 -2,-1 -4.5,-1c-2.5,0 -4.5,0.4 -4.5,1c0,0.5 0.7,1 1.5,1c1.2,0 1.5,1.5 1.5,7.5c0,4.1 -0.2,7.5 -0.5,7.5c-0.2,0 -3.6,-3.8 -7.5,-8.5c-6.7,-8 -7.3,-8.5 -11,-8.5c-2.2,0 -4,0.4 -4,1Zm32.8,0.8c2.2,1.7 2.3,2.4 2,11.3c-0.2,5.2 -0.7,10.2 -1.2,11.1c-0.7,1.6 -0.1,1.8 6,1.8c8.9,0 13.4,-1.3 16.7,-4.8c5.5,-5.7 5.5,-14.9 0,-19.1c-2.3,-1.9 -4,-2.1 -14.2,-2.1c-11.3,0 -11.5,0.1 -9.3,1.8Zm17.1,1.7c3.5,1.7 4.1,3.2 4.1,9.4c0,6.8 -3.1,10.1 -9.5,10.1l-4.7,0l0.3,-9.8c0.1,-5.3 0.4,-10 0.6,-10.5c0.7,-1.2 6.2,-0.8 9.2,0.8Zm22.1,-0.5c0,1.6 0.5,3 1,3c0.6,0 1,-0.6 1,-1.4c0,-1.3 2.8,-2.6 5.8,-2.6c0.9,0 1.2,2.8 1.2,10.6c0,9.7 -0.2,10.6 -2,11.1c-4.1,1.1 -1.8,2.3 4.5,2.3c3.7,0 6.5,-0.4 6.5,-1c0,-0.6 -0.7,-1 -1.5,-1c-1.2,0 -1.5,-1.9 -1.5,-11c0,-8.1 0.3,-11 1.3,-11c2.9,0 5.7,1.3 5.7,2.6c0,0.8 0.5,1.4 1,1.4c0.6,0 1,-1.4 1,-3l0,-3l-12,0l-12,0l0,3Zm26,-2c0,0.5 0.7,1 1.5,1c1.2,0 1.5,1.9 1.5,11c0,6.7 -0.4,11 -1,11c-0.5,0 -1,0.4 -1,1c0,0.6 3.8,1 9.5,1c6.9,0 9.5,-0.3 9.5,-1.3c0,-0.6 0.3,-2.2 0.6,-3.5c0.8,-2.7 -1.2,-3 -2.1,-0.2c-0.5,1.6 -1.5,2 -5.1,2l-4.4,0l0,-9.6l3.5,0.4c2.1,0.3 3.5,1 3.5,1.8c0,0.8 0.5,1.4 1,1.4c0.6,0 1,-2 1,-4.5c0,-4.4 -1.2,-6 -2.4,-3c-0.3,0.9 -1.8,1.5 -3.6,1.5c-2.9,0 -3,-0.2 -3,-4.5l0,-4.5l4.1,0c3.2,0 4.2,0.4 4.6,2c0.8,3 2.3,2.4 2.3,-1l0,-3l-10,0c-6,0 -10,0.4 -10,1Zm50,0c0,0.5 0.7,1 1.5,1c1.2,0 1.5,1.9 1.5,11c0,9.1 -0.3,11 -1.5,11c-0.8,0 -1.5,0.4 -1.5,1c0,0.6 2.8,1 6.5,1c3.7,0 6.5,-0.4 6.5,-1c0,-0.6 -0.6,-1 -1.4,-1c-1.5,0 -2.6,-3 -2.6,-7.3c0,-2.6 0.1,-2.7 5.9,-2.7c5.1,0 5.9,0.2 5.6,1.7c-0.2,1 -0.4,3.3 -0.4,5c-0.1,2.2 -0.6,3.3 -1.6,3.3c-0.8,0 -1.5,0.4 -1.5,1c0,0.6 2.8,1 6.5,1c6.3,0 8.6,-1.2 4.5,-2.3c-1.8,-0.5 -2,-1.4 -2,-10.7c0,-9.3 0.2,-10.2 2,-10.7c4.1,-1.1 1.8,-2.3 -4.5,-2.3c-3.7,0 -6.5,0.4 -6.5,1c0,0.5 0.7,1 1.5,1c0.8,0 1.5,0.3 1.5,0.7c0.1,0.5 0.3,2.5 0.6,4.5l0.6,3.8l-6.1,0c-6.1,0 -6.1,0 -6.1,-2.9c0,-3.9 0.9,-6.1 2.6,-6.1c0.8,0 1.4,-0.5 1.4,-1c0,-0.6 -2.8,-1 -6.5,-1c-3.7,0 -6.5,0.4 -6.5,1Zm32,0c0,0.5 0.7,1 1.5,1c1.2,0 1.5,1.9 1.5,11c0,9.1 -0.3,11 -1.5,11c-0.8,0 -1.5,0.4 -1.5,1c0,0.5 2,1 4.5,1c2.5,0 4.5,-0.5 4.5,-1c0,-0.6 -0.7,-1 -1.5,-1c-1.2,0 -1.5,-1.6 -1.5,-8.6l0,-8.6l8.2,9.6c11.1,13.1 11.8,13 11.8,-2.4c0,-9.8 0.3,-12 1.4,-12c0.8,0 1.8,-0.5 2.1,-1c0.4,-0.6 -1.3,-1 -4.4,-1c-2.8,0 -5.1,0.4 -5.1,1c0,0.5 0.6,1 1.4,1c1.1,0 1.5,1.9 1.8,8.1l0.3,8.1l-4.3,-4.9c-2.3,-2.6 -5.7,-6.7 -7.5,-9c-2.9,-3.8 -3.6,-4.2 -7.4,-4.3c-2.4,0 -4.3,0.4 -4.3,1Zm63,0c0,0.5 0.7,1 1.5,1c1.2,0 1.5,1.9 1.5,11c0,6.7 -0.4,11 -1,11c-0.5,0 -1,0.4 -1,1c0,0.6 3.8,1 9.5,1c10.4,0 11,-0.3 10.3,-5.7l-0.4,-2.8l-1.2,2.7c-1,2.5 -1.7,2.8 -5.7,2.8l-4.5,0l0,-10.5c0,-9.8 0.1,-10.5 2,-10.5c1.1,0 2,-0.5 2,-1c0,-0.6 -2.8,-1 -6.5,-1c-3.7,0 -6.5,0.4 -6.5,1Zm-452,34c0,0.7 93.8,1 279.5,1c185.7,0 279.5,-0.3 279.5,-1c0,-0.7 -93.8,-1 -279.5,-1c-185.7,0 -279.5,0.3 -279.5,1Zm8.1,10c-8,1.9 -12.3,11.5 -8.7,19.2c2.5,5.2 6.9,7.2 14.5,6.6c5.3,-0.4 6.6,-0.9 9.4,-3.6c2.9,-3 3.2,-3.8 3.2,-9.6c0,-7.7 -2.2,-10.8 -9,-12.5c-4.9,-1.2 -4.6,-1.2 -9.4,-0.1Zm8.4,2.6c5.8,2.3 5.8,18.5 0,20.8c-2.8,1 -5.9,0.7 -8.2,-0.9c-4.7,-3.3 -5.4,-14.4 -1.2,-18.6c1.9,-1.9 6.2,-2.5 9.4,-1.3Zm55.5,-3c-6.2,2.2 -8.8,6.3 -7,10.9c1,2.7 3.5,4 9.2,5c4.3,0.7 5.4,2.9 3.3,6.1c-2.5,3.9 -10.5,2.6 -10.5,-1.6c0,-3.2 -1.7,-2.3 -2.3,1.2c-0.2,1.8 -0.3,3.5 0,3.8c0.2,0.2 3.3,0.6 6.8,0.8c6.1,0.4 6.6,0.3 9.5,-2.6c3.5,-3.5 4,-8 1.2,-10.5c-1,-0.9 -4.1,-2.1 -7,-2.7c-4.8,-1.1 -5.2,-1.4 -5.2,-4.1c0,-2.2 0.5,-3 2.6,-3.5c3.1,-0.8 7.4,1 7.4,3.1c0,0.8 0.5,1.5 1,1.5c1.2,0 1.4,-5.7 0.2,-6.4c-1.3,-0.8 -7.7,-1.5 -9.2,-1Zm27.5,0c-7.7,1.9 -11.5,6.2 -11.5,13.3c0,5.3 2.2,9.6 6,11.6c3.8,1.9 12.3,1.9 16.1,0c8.5,-4.5 9.2,-18.7 1.1,-22.9c-3.3,-1.7 -8.9,-2.6 -11.7,-2Zm7.8,4.4c4.5,3.6 4.8,14 0.4,18c-2.8,2.7 -7,2.5 -10.4,-0.4c-2.5,-2.2 -2.8,-3 -2.8,-9.1c0,-5.8 0.3,-6.9 2.4,-8.6c3,-2.5 7.2,-2.4 10.4,0.1Zm441.1,-4.3c-3.9,0.8 -6.6,4.7 -6.2,8.9c0.3,4.3 2.4,5.9 9,6.9c4.5,0.7 5.9,3.6 3.2,6.6c-3,3.3 -10.4,1.8 -10.4,-2.1c0,-3.2 -1.7,-2.3 -2.3,1.2c-0.2,1.8 -0.3,3.5 0,3.8c0.2,0.2 3.3,0.6 6.8,0.8c6.1,0.4 6.6,0.3 9.5,-2.6c3.5,-3.5 4,-8 1.2,-10.5c-1,-0.9 -4.2,-2.1 -7,-2.8c-4.9,-1 -5.3,-1.3 -5,-3.6c0.2,-1.4 1,-3 1.9,-3.6c2.3,-1.4 7,0 7.6,2.3c0.3,1.1 0.9,2 1.4,2c1.1,0 1.2,-5.7 0.1,-6.4c-1.3,-0.8 -7.6,-1.4 -9.8,-0.9Zm-517.4,1.3c0,0.5 0.7,1 1.5,1c1.2,0 1.5,1.9 1.5,11c0,9.1 -0.3,11 -1.5,11c-0.8,0 -1.5,0.4 -1.5,1c0,0.6 2.8,1 6.5,1c3.7,0 6.5,-0.4 6.5,-1c0,-0.6 -0.9,-1 -2,-1c-1.7,0 -2,-0.7 -2,-5c0,-4.9 0.1,-5 3,-5c2,0 3,0.5 3,1.5c0,0.8 0.5,1.5 1,1.5c0.6,0 1,-1.8 1,-4c0,-2.2 -0.4,-4 -1,-4c-0.5,0 -1,0.4 -1,1c0,0.5 -1.3,1 -3,1c-2.8,0 -3,-0.2 -3,-3.9c0,-2.6 0.5,-4.1 1.6,-4.5c2.3,-0.9 6.4,0.4 6.4,2c0,0.8 0.5,1.4 1,1.4c0.6,0 1,-1.4 1,-3l0,-3l-9.5,0c-5.7,0 -9.5,0.4 -9.5,1Zm89,0c0,0.5 0.6,1 1.4,1c1.1,0 1.5,2.2 1.8,10.1c0.3,9.3 0.5,10.2 2.8,11.9c1.8,1.4 4.1,2 8.3,2c4.8,0 6.2,-0.4 8.2,-2.5c2.3,-2.2 2.5,-3.2 2.5,-10.9c0,-6.2 0.4,-8.9 1.5,-10c2.3,-2.2 1.9,-2.6 -3,-2.6c-2.5,0 -4.5,0.4 -4.5,1c0,0.5 0.7,1 1.5,1c1.2,0 1.5,1.7 1.5,8.9c0,8.2 -0.2,9.1 -2.2,10.5c-3.1,2.2 -6.4,2 -8.8,-0.4c-1.7,-1.7 -2,-3.3 -2,-10.5c0,-6.9 0.3,-8.5 1.5,-8.5c0.8,0 1.5,-0.5 1.5,-1c0,-0.6 -2.7,-1 -6,-1c-3.3,0 -6,0.4 -6,1Zm30,1.9c0,3.6 1.9,5.1 2.7,2.2c0.4,-1.6 1.3,-2.1 3.9,-2.1l3.4,0l0,5.9c0,9 -1.1,15.1 -2.6,15.1c-0.8,0 -1.4,0.4 -1.4,1c0,0.6 2.8,1 6.5,1c3.6,0 6.5,-0.4 6.5,-0.9c0,-0.5 -0.8,-1.1 -1.7,-1.3c-1.6,-0.3 -1.8,-1.6 -1.8,-10.6l0,-10.2l3.1,0c2.4,0 3.3,0.5 3.9,2.2l0.7,2.3l0.8,-2.5c1.6,-5.1 1.8,-5 -11.5,-5l-12.5,0l0,2.9Zm27,-2c0,0.5 0.9,1.1 2,1.4c1.8,0.5 2,1.4 2,10.7c0,9.3 -0.2,10.2 -2,10.7c-4.1,1.1 -1.8,2.3 4.5,2.3c3.7,0 6.5,-0.4 6.5,-1c0,-0.6 -0.7,-1 -1.5,-1c-1.1,0 -1.5,-1.2 -1.5,-5l0,-5l11,0l0,4.6c0,3.7 -0.4,4.7 -2,5.1c-4.1,1.1 -1.8,2.3 4.5,2.3c3.7,0 6.5,-0.4 6.5,-1c0,-0.6 -0.6,-1 -1.4,-1c-0.9,0 -1.5,-2 -1.9,-6.6c-0.8,-8.3 0.1,-15.4 1.9,-15.4c0.8,0 1.4,-0.5 1.4,-1c0,-0.6 -2.8,-1 -6.5,-1c-6.3,0 -8.6,1.2 -4.5,2.3c1.6,0.4 2,1.4 2,4.6l0,4.1l-5.5,0l-5.5,0l0,-4.5c0,-3.3 0.4,-4.5 1.5,-4.5c0.8,0 1.5,-0.5 1.5,-1c0,-0.6 -2.8,-1 -6.5,-1c-3.6,0 -6.5,0.4 -6.5,0.9Zm33,0.1c0,0.5 0.7,1 1.5,1c1.2,0 1.5,1.9 1.5,10.8c0,7.1 -0.4,11.2 -1.2,12c-0.9,0.9 1.1,1.2 9,1.2l10.2,0l0,-3.5c0,-3.8 -1.4,-4.7 -2.3,-1.5c-0.4,1.6 -1.4,2 -5.1,2l-4.6,0l0,-4.5c0,-4.5 0,-4.5 3.5,-4.5c2.4,0 3.5,0.5 3.5,1.5c0,0.8 0.5,1.5 1,1.5c0.6,0 1,-2 1,-4.5c0,-2.5 -0.4,-4.5 -1,-4.5c-0.5,0 -1,0.7 -1,1.5c0,1 -1.1,1.5 -3.5,1.5c-3.4,0 -3.5,-0.1 -3.5,-4l0,-4l4.5,0c3.3,0 4.5,0.4 4.5,1.5c0,0.8 0.5,1.5 1,1.5c0.6,0 1,-0.6 1,-1.4c0,-0.8 0.3,-2.1 0.6,-3c0.5,-1.4 -0.7,-1.6 -10,-1.6c-6.4,0 -10.6,0.4 -10.6,1Zm24,0c0,0.5 0.7,1 1.5,1c1.2,0 1.5,1.9 1.5,11c0,9.1 -0.3,11 -1.5,11c-0.8,0 -1.5,0.4 -1.5,1c0,0.6 2.8,1 6.5,1c3.7,0 6.5,-0.4 6.5,-1c0,-0.6 -0.6,-1 -1.4,-1c-0.8,0 -1.7,-0.7 -2,-1.6c-1,-2.6 -0.7,-19.2 0.4,-19.9c1.6,-1 4.9,0.4 6.1,2.6c1.3,2.5 -1,6.6 -4.1,7.1c-1.9,0.3 -1.6,0.9 2.5,7c4.2,6.2 4.8,6.8 8,6.8c3.4,0 4.6,-1.2 2.5,-2.5c-0.6,-0.4 -2.6,-2.9 -4.5,-5.7l-3.4,-5.1l2.5,-1.9c3.1,-2.5 3.4,-8.2 0.5,-9.8c-2.5,-1.3 -20.1,-1.3 -20.1,0Zm29,0c0,0.5 0.7,1 1.5,1c1.2,0 1.5,1.9 1.5,11c0,9.1 -0.3,11 -1.5,11c-0.8,0 -1.5,0.4 -1.5,1c0,0.5 2,1 4.5,1c2.5,0 4.5,-0.5 4.5,-1c0,-0.6 -0.7,-1 -1.5,-1c-1.2,0 -1.5,-1.6 -1.5,-8.6l0,-8.7l2.8,3.5c7.6,9.5 13.7,15.8 15.3,15.8c1.7,0 1.9,-1 1.9,-12c0,-9.8 0.3,-12 1.4,-12c0.8,0 1.8,-0.5 2.1,-1c0.4,-0.6 -1.3,-1 -4.4,-1c-2.8,0 -5.1,0.4 -5.1,1c0,0.5 0.6,1 1.4,1c1.1,0 1.5,1.9 1.8,8c0.2,4.4 0.2,8 0.1,8c-0.1,0 -3.6,-4.1 -7.8,-9c-7.2,-8.5 -7.8,-9 -11.6,-9c-2.1,0 -3.9,0.4 -3.9,1Zm43,0c0,0.5 0.7,1 1.5,1c1.2,0 1.5,1.9 1.5,11c0,9.1 -0.3,11 -1.5,11c-0.8,0 -1.5,0.4 -1.5,1c0,0.6 2.8,1 6.5,1c6.3,0 8.6,-1.2 4.5,-2.3c-1.8,-0.5 -2,-1.4 -2,-10.5c0,-10.3 0.5,-11.8 4,-10.7c4,1.3 3.7,8 -0.6,9.1c-2.7,0.7 -2.3,2.4 0.6,2.4c7.2,0 11.9,-8.8 6.8,-12.4c-2.6,-1.8 -19.8,-2.3 -19.8,-0.6Zm24,0c0,0.5 0.9,1 2,1c1.9,0 2,0.7 2,10.6c0,9.7 -0.2,10.6 -2,11.1c-4.1,1.1 -1.8,2.3 4.5,2.3c3.7,0 6.5,-0.4 6.5,-1c0,-0.6 -0.7,-1 -1.5,-1c-1.1,0 -1.5,-1.2 -1.5,-5l0,-5l11.3,0l-0.7,3.7c-0.3,2.1 -0.6,4.4 -0.6,5c0,0.7 -0.7,1.3 -1.5,1.3c-0.8,0 -1.5,0.4 -1.5,1c0,0.6 2.8,1 6.5,1c3.7,0 6.5,-0.4 6.5,-1c0,-0.6 -0.7,-1 -1.5,-1c-1.1,0 -1.5,-1.2 -1.6,-4.3c-0.1,-2.3 -0.1,-5.6 -0.2,-7.2c-0.1,-7.8 0.3,-10.5 1.8,-10.5c0.8,0 1.5,-0.5 1.5,-1c0,-0.6 -2.8,-1 -6.5,-1c-3.7,0 -6.5,0.4 -6.5,1c0,0.5 0.6,1 1.4,1c1.4,0 2.6,2.9 2.6,6.7c0,2.1 -0.5,2.3 -5.5,2.3l-5.5,0l0,-4.5c0,-3.3 0.4,-4.5 1.5,-4.5c0.8,0 1.5,-0.5 1.5,-1c0,-0.6 -2.8,-1 -6.5,-1c-3.7,0 -6.5,0.4 -6.5,1Zm33,0c0,0.5 0.7,1 1.5,1c1.2,0 1.5,1.9 1.5,11c0,9.1 -0.3,11 -1.5,11c-0.8,0 -1.5,0.4 -1.5,1c0,0.6 2.8,1 6.5,1c6.3,0 8.6,-1.2 4.5,-2.3c-1.8,-0.5 -2,-1.4 -2,-10.7c0,-9.3 0.2,-10.2 2,-10.7c4.1,-1.1 1.8,-2.3 -4.5,-2.3c-3.7,0 -6.5,0.4 -6.5,1Zm16,0c0,0.5 0.7,1 1.5,1c1.2,0 1.5,1.9 1.5,11c0,6.7 -0.4,11 -1,11c-0.5,0 -1,0.4 -1,1c0,0.6 4,1 10,1l10,0l0,-3.5c0,-3.8 -1.4,-4.7 -2.3,-1.5c-0.4,1.6 -1.4,2 -5.1,2l-4.6,0l0,-10.5c0,-9.8 0.1,-10.5 2,-10.5c1.1,0 2,-0.5 2,-1c0,-0.6 -2.8,-1 -6.5,-1c-3.7,0 -6.5,0.4 -6.5,1Zm24,0c0,0.5 0.6,1 1.4,1c1.9,0 2.4,2.5 2.4,12.5c0.1,7.8 -0.1,8.8 -1.9,9.2c-4,1.1 -1.6,2.3 4.6,2.3c3.7,0 6.5,-0.4 6.5,-1c0,-0.6 -0.6,-1 -1.4,-1c-1.9,0 -2.6,-3.2 -2.6,-11.7c0,-8 0.6,-10.3 2.6,-10.3c0.8,0 1.4,-0.5 1.4,-1c0,-0.6 -2.8,-1 -6.5,-1c-3.7,0 -6.5,0.4 -6.5,1Zm16,0c0,0.5 0.7,1 1.5,1c1.2,0 1.5,1.9 1.5,11c0,9.1 -0.3,11 -1.5,11c-0.8,0 -1.5,0.4 -1.5,1c0,0.6 2.8,1 6.5,1c6.3,0 8.6,-1.2 4.5,-2.3c-1.8,-0.5 -2,-1.4 -2,-11.1c0,-9.8 0.1,-10.6 1.9,-10.6c2.5,0 5.1,2.6 5.1,5c0,2.2 -2.6,5 -4.6,5c-0.8,0 -1.2,0.4 -0.9,1c2.2,3.5 11.5,-2.1 11.5,-6.9c0,-4.9 -2.6,-6.1 -12.8,-6.1c-5.5,0 -9.2,0.4 -9.2,1Zm25.8,1c2,1.9 2.2,3.1 2.2,11.6c0,8.7 -0.2,9.6 -2,10.1c-4.1,1.1 -1.8,2.3 4.5,2.3c3.7,0 6.5,-0.4 6.5,-1c0,-0.6 -0.6,-1 -1.4,-1c-1,0 -1.6,-2 -2.1,-6.9c-0.7,-7.6 0.1,-15.1 1.7,-15.1c2.7,0 4.8,2.3 4.8,5.1c0,2.4 -0.6,3.3 -3.2,4.4c-2.7,1.1 -3,1.5 -1.5,2c4.4,1.8 10.7,-2.5 10.7,-7.3c0,-5 -2.5,-6.2 -13,-6.2l-9.4,0l2.2,2Zm23.2,-1c0,0.5 0.7,1 1.5,1c1.2,0 1.5,1.9 1.5,11c0,9.1 -0.3,11 -1.5,11c-0.8,0 -1.5,0.4 -1.5,1c0,0.6 2.7,1 6,1c3.3,0 6,-0.4 6,-1c0,-0.6 -0.7,-1 -1.5,-1c-1.2,0 -1.5,-1.9 -1.5,-11c0,-9.1 0.3,-11 1.5,-11c0.8,0 1.5,-0.5 1.5,-1c0,-0.6 -2.7,-1 -6,-1c-3.3,0 -6,0.4 -6,1Zm15,0c0,0.5 0.9,1 2,1c1.9,0 2,0.7 2,10.6c0,9.7 -0.2,10.6 -2,11.1c-3.7,1 -2,2.3 3,2.3c2.8,0 5,-0.5 5,-1c0,-0.6 -0.6,-1 -1.4,-1c-1.1,0 -1.5,-2 -1.8,-8.5c-0.3,-7.7 -0.2,-8.3 1.3,-6.7c0.8,0.9 4.6,5.2 8.3,9.4c4,4.5 7.6,7.8 8.7,7.8c1.8,0 1.9,-0.9 1.9,-12c0,-10 0.3,-12 1.5,-12c0.8,0 1.5,-0.5 1.5,-1c0,-0.6 -2,-1 -4.5,-1c-2.5,0 -4.5,0.4 -4.5,1c0,0.5 0.7,1 1.5,1c1.2,0 1.5,1.6 1.5,8.1l0,8.1l-7.7,-9.1c-7.6,-8.8 -7.9,-9.1 -12,-9.1c-2.4,0 -4.3,0.4 -4.3,1Zm33,0c0,0.5 0.7,1 1.5,1c0.8,0 1.7,1.4 2.1,3.6c0.9,4.8 -0.2,17.2 -1.7,19c-1,1.2 0.4,1.4 9,1.4l10.1,0l0,-3.5c0,-1.9 -0.4,-3.5 -1,-3.5c-0.5,0 -1,0.9 -1,2c0,1.7 -0.7,2 -5,2l-5,0l0,-4.5c0,-4.5 0,-4.5 3.5,-4.5c2.4,0 3.5,0.5 3.5,1.5c0,0.8 0.5,1.5 1,1.5c0.6,0 1,-2 1,-4.5c0,-2.5 -0.4,-4.5 -1,-4.5c-0.5,0 -1,0.7 -1,1.5c0,1.1 -1.1,1.5 -3.5,1.5c-3.5,0 -3.6,0 -3.3,-4l0.2,-4l4.3,0c3.2,0 4.3,0.4 4.3,1.5c0,2 1.6,1.9 2.4,-0.1c1.6,-4.1 1,-4.4 -9.9,-4.4c-6.3,0 -10.5,0.4 -10.5,1Z" style="fill:#000056;fill-rule:nonzero;"/></svg>